<svg width="390" height="801" viewBox="0 0 390 801" fill="none" xmlns="http://www.w3.org/2000/svg">
<g clip-path="url(#clip0_264_2597)">
<rect width="390" height="801" fill="#C8F0FF"/>
<g clip-path="url(#clip1_264_2597)">
<rect width="390" height="801" fill="url(#paint0_linear_264_2597)"/>
<mask id="path-1-inside-1_264_2597" fill="white">
<path d="M149 56C149 53.7909 150.791 52 153 52C155.209 52 157 53.7909 157 56C157 58.2091 155.209 60 153 60C150.791 60 149 58.2091 149 56Z"/>
</mask>
<path d="M149 56C149 53.7909 150.791 52 153 52C155.209 52 157 53.7909 157 56C157 58.2091 155.209 60 153 60C150.791 60 149 58.2091 149 56Z" fill="#FFD700"/>
<path d="M149 56M157 56M157 56M149 56M153 52M157 56M153 60M149 56M153 60V58C151.895 58 151 57.1046 151 56H149H147C147 59.3137 149.686 62 153 62V60ZM157 56H155C155 57.1046 154.105 58 153 58V60V62C156.314 62 159 59.3137 159 56H157ZM153 52V54C154.105 54 155 54.8954 155 56H157H159C159 52.6863 156.314 50 153 50V52ZM153 52V50C149.686 50 147 52.6863 147 56H149H151C151 54.8954 151.895 54 153 54V52Z" fill="#AA8800" mask="url(#path-1-inside-1_264_2597)"/>
<mask id="path-3-inside-2_264_2597" fill="white">
<path d="M163 56C163 53.7909 164.791 52 167 52H181C183.209 52 185 53.7909 185 56C185 58.2091 183.209 60 181 60H167C164.791 60 163 58.2091 163 56Z"/>
</mask>
<path d="M163 56C163 53.7909 164.791 52 167 52H181C183.209 52 185 53.7909 185 56C185 58.2091 183.209 60 181 60H167C164.791 60 163 58.2091 163 56Z" fill="#FFD700"/>
<path d="M163 56M185 56M185 56M163 56M167 52V54H181V52V50H167V52ZM185 56M181 60V58H167V60V62H181V60ZM163 56M167 60V58C165.895 58 165 57.1046 165 56H163H161C161 59.3137 163.686 62 167 62V60ZM185 56H183C183 57.1046 182.105 58 181 58V60V62C184.314 62 187 59.3137 187 56H185ZM181 52V54C182.105 54 183 54.8954 183 56H185H187C187 52.6863 184.314 50 181 50V52ZM167 52V50C163.686 50 161 52.6863 161 56H163H165C165 54.8954 165.895 54 167 54V52Z" fill="#AA8800" mask="url(#path-3-inside-2_264_2597)"/>
<mask id="path-5-inside-3_264_2597" fill="white">
<path d="M191 56C191 53.7909 192.791 52 195 52C197.209 52 199 53.7909 199 56C199 58.2091 197.209 60 195 60C192.791 60 191 58.2091 191 56Z"/>
</mask>
<path d="M191 56C191 53.7909 192.791 52 195 52C197.209 52 199 53.7909 199 56C199 58.2091 197.209 60 195 60C192.791 60 191 58.2091 191 56Z" fill="white" fill-opacity="0.4"/>
<path d="M191 56M199 56M199 56M191 56M195 52M199 56M195 60M191 56M195 60V58C193.895 58 193 57.1046 193 56H191H189C189 59.3137 191.686 62 195 62V60ZM199 56H197C197 57.1046 196.105 58 195 58V60V62C198.314 62 201 59.3137 201 56H199ZM195 52V54C196.105 54 197 54.8954 197 56H199H201C201 52.6863 198.314 50 195 50V52ZM195 52V50C191.686 50 189 52.6863 189 56H191H193C193 54.8954 193.895 54 195 54V52Z" fill="white" fill-opacity="0.2" mask="url(#path-5-inside-3_264_2597)"/>
<mask id="path-7-inside-4_264_2597" fill="white">
<path d="M205 56C205 53.7909 206.791 52 209 52C211.209 52 213 53.7909 213 56C213 58.2091 211.209 60 209 60C206.791 60 205 58.2091 205 56Z"/>
</mask>
<path d="M205 56C205 53.7909 206.791 52 209 52C211.209 52 213 53.7909 213 56C213 58.2091 211.209 60 209 60C206.791 60 205 58.2091 205 56Z" fill="white" fill-opacity="0.4"/>
<path d="M205 56M213 56M213 56M205 56M209 52M213 56M209 60M205 56M209 60V58C207.895 58 207 57.1046 207 56H205H203C203 59.3137 205.686 62 209 62V60ZM213 56H211C211 57.1046 210.105 58 209 58V60V62C212.314 62 215 59.3137 215 56H213ZM209 52V54C210.105 54 211 54.8954 211 56H213H215C215 52.6863 212.314 50 209 50V52ZM209 52V50C205.686 50 203 52.6863 203 56H205H207C207 54.8954 207.895 54 209 54V52Z" fill="white" fill-opacity="0.2" mask="url(#path-7-inside-4_264_2597)"/>
<mask id="path-9-inside-5_264_2597" fill="white">
<path d="M219 56C219 53.7909 220.791 52 223 52C225.209 52 227 53.7909 227 56C227 58.2091 225.209 60 223 60C220.791 60 219 58.2091 219 56Z"/>
</mask>
<path d="M219 56C219 53.7909 220.791 52 223 52C225.209 52 227 53.7909 227 56C227 58.2091 225.209 60 223 60C220.791 60 219 58.2091 219 56Z" fill="white" fill-opacity="0.4"/>
<path d="M219 56M227 56M227 56M219 56M223 52M227 56M223 60M219 56M223 60V58C221.895 58 221 57.1046 221 56H219H217C217 59.3137 219.686 62 223 62V60ZM227 56H225C225 57.1046 224.105 58 223 58V60V62C226.314 62 229 59.3137 229 56H227ZM223 52V54C224.105 54 225 54.8954 225 56H227H229C229 52.6863 226.314 50 223 50V52ZM223 52V50C219.686 50 217 52.6863 217 56H219H221C221 54.8954 221.895 54 223 54V52Z" fill="white" fill-opacity="0.2" mask="url(#path-9-inside-5_264_2597)"/>
<mask id="path-11-inside-6_264_2597" fill="white">
<path d="M233 56C233 53.7909 234.791 52 237 52C239.209 52 241 53.7909 241 56C241 58.2091 239.209 60 237 60C234.791 60 233 58.2091 233 56Z"/>
</mask>
<path d="M233 56C233 53.7909 234.791 52 237 52C239.209 52 241 53.7909 241 56C241 58.2091 239.209 60 237 60C234.791 60 233 58.2091 233 56Z" fill="white" fill-opacity="0.4"/>
<path d="M233 56M241 56M241 56M233 56M237 52M241 56M237 60M233 56M237 60V58C235.895 58 235 57.1046 235 56H233H231C231 59.3137 233.686 62 237 62V60ZM241 56H239C239 57.1046 238.105 58 237 58V60V62C240.314 62 243 59.3137 243 56H241ZM237 52V54C238.105 54 239 54.8954 239 56H241H243C243 52.6863 240.314 50 237 50V52ZM237 52V50C233.686 50 231 52.6863 231 56H233H235C235 54.8954 235.895 54 237 54V52Z" fill="white" fill-opacity="0.2" mask="url(#path-11-inside-6_264_2597)"/>
<g filter="url(#filter0_d_264_2597)">
<mask id="path-13-inside-7_264_2597" fill="white">
<path d="M16 44C16 39.5817 19.5817 36 24 36H48C52.4183 36 56 39.5817 56 44V68C56 72.4183 52.4183 76 48 76H24C19.5817 76 16 72.4183 16 68V44Z"/>
</mask>
<path d="M16 44C16 39.5817 19.5817 36 24 36H48C52.4183 36 56 39.5817 56 44V68C56 72.4183 52.4183 76 48 76H24C19.5817 76 16 72.4183 16 68V44Z" fill="white" shape-rendering="crispEdges"/>
<path d="M24 36V38H48V36V34H24V36ZM56 44H54V68H56H58V44H56ZM48 76V74H24V76V78H48V76ZM16 68H18V44H16H14V68H16ZM24 76V74C20.6863 74 18 71.3137 18 68H16H14C14 73.5228 18.4772 78 24 78V76ZM56 68H54C54 71.3137 51.3137 74 48 74V76V78C53.5228 78 58 73.5228 58 68H56ZM48 36V38C51.3137 38 54 40.6863 54 44H56H58C58 38.4772 53.5228 34 48 34V36ZM24 36V34C18.4772 34 14 38.4772 14 44H16H18C18 40.6863 20.6863 38 24 38V36Z" fill="#1A3A5C" mask="url(#path-13-inside-7_264_2597)"/>
<path d="M39 50L33 56L39 62" stroke="#1A3A5C" stroke-width="2.5" stroke-linecap="round" stroke-linejoin="round"/>
</g>
<path d="M37.5 695.4H57.5V675.4H37.5V695.4Z" fill="#5A3800"/>
<path d="M62.3125 683.938H63.125V683.125H63.9375V682.312H64.75V679.062H66.375V682.312H67.1875V683.125H68V683.938H68.8125V684.75H67.1875V683.938H66.375V683.125H64.75V683.938H63.9375V684.75H62.3125V683.938ZM68.8125 681.5H71.25V679.062H72.875V684.75H71.25V682.312H68.8125V681.5ZM63.125 685.562H72.875V688H64.75V688.812H72.875V689.625H63.9375V688.812H63.125V687.188H71.25V686.375H63.125V685.562ZM75.3125 679.062H81.8125V683.938H81V684.75H76.125V683.938H75.3125V679.062ZM76.9375 679.875V683.938H80.1875V679.875H76.9375ZM81.8125 680.688H84.25V679.062H85.875V684.75H84.25V683.125H81.8125V682.312H84.25V681.5H81.8125V680.688ZM76.125 686.375H77.75V685.562H84.25V686.375H85.875V688.812H84.25V689.625H77.75V688.812H76.125V686.375ZM77.75 687.188V688H78.5625V688.812H83.4375V688H84.25V687.188H83.4375V686.375H78.5625V687.188H77.75ZM88.3125 679.875H90.75V679.062H92.375V679.875H94.8125V680.688H93.1875V681.5H94.8125V683.938H93.1875V684.75H89.9375V683.938H88.3125V681.5H89.9375V680.688H88.3125V679.875ZM89.9375 682.312V683.125H90.75V683.938H92.375V683.125H93.1875V682.312H92.375V681.5H90.75V682.312H89.9375ZM96.4375 679.062H98.0625V681.5H100.5V682.312H98.0625V684.75H96.4375V679.062ZM89.125 685.562H98.0625V688H90.75V688.812H98.0625V689.625H89.9375V688.812H89.125V687.188H96.4375V686.375H89.125V685.562ZM105.375 679.875H107V688H110.25V687.188H111.875V688H111.062V688.812H106.188V688H105.375V679.875ZM112.688 679.062H114.312V683.938H115.125V679.062H116.75V689.625H115.125V684.75H114.312V689.625H112.688V679.062ZM119.188 679.875H120.812V679.062H127.312V679.875H128.938V682.312H127.312V683.125H120.812V682.312H119.188V679.875ZM120.812 680.688V681.5H121.625V682.312H126.5V681.5H127.312V680.688H126.5V679.875H121.625V680.688H120.812ZM118.375 683.938H120.812V682.312H122.438V683.938H125.688V682.312H127.312V683.938H129.75V684.75H118.375V683.938ZM119.188 686.375H120.812V685.562H127.312V686.375H128.938V688.812H127.312V689.625H120.812V688.812H119.188V686.375ZM120.812 687.188V688H121.625V688.812H126.5V688H127.312V687.188H126.5V686.375H121.625V687.188H120.812ZM132.188 679.875H133.812V679.062H140.312V679.875H141.938V682.312H140.312V683.125H133.812V682.312H132.188V679.875ZM133.812 680.688V681.5H134.625V682.312H139.5V681.5H140.312V680.688H139.5V679.875H134.625V680.688H133.812ZM131.375 683.938H142.75V684.75H131.375V683.938ZM132.188 685.562H141.938V688H133.812V688.812H141.938V689.625H133V688.812H132.188V687.188H140.312V686.375H132.188V685.562ZM148.438 679.875H154.125V688H153.312V688.812H149.25V688H148.438V679.875ZM150.062 680.688V688H152.5V680.688H150.062ZM154.938 683.938H157.375V679.062H159V689.625H157.375V684.75H154.938V683.938ZM161.438 679.062H167.938V682.312H163.062V683.938H167.938V684.75H162.25V683.938H161.438V681.5H166.312V679.875H161.438V679.062ZM170.375 679.062H172V684.75H170.375V679.062ZM162.25 688.812H163.875V688H165.5V687.188H166.312V685.562H167.938V687.188H168.75V688H170.375V688.812H172V689.625H170.375V688.812H167.938V688H166.312V688.812H163.875V689.625H162.25V688.812ZM175.25 682.312H177.688V681.5H178.5V680.688H179.312V679.062H180.938V680.688H181.75V681.5H182.562V682.312H185V683.125H181.75V682.312H180.938V681.5H179.312V682.312H178.5V683.125H175.25V682.312ZM174.438 683.938H179.312V682.312H180.938V683.938H185.812V684.75H174.438V683.938ZM175.25 685.562H185V688.812H184.188V689.625H183.375V686.375H175.25V685.562ZM188.25 681.5H189.062V680.688H189.875V679.875H196.375V680.688H197.188V681.5H198V683.938H197.188V684.75H196.375V685.562H189.875V684.75H189.062V683.938H188.25V681.5ZM189.875 681.5V683.938H190.688V684.75H195.562V683.938H196.375V681.5H195.562V680.688H190.688V681.5H189.875ZM187.438 688H198.812V688.812H187.438V688ZM201.25 679.875H211V683.125H202.875V684.75H211V685.562H202.062V684.75H201.25V682.312H209.375V680.688H201.25V679.875ZM200.438 688H205.312V685.562H206.938V688H211.812V688.812H200.438V688ZM217.5 679.062H224V679.875H221.562V682.312H222.375V683.125H223.188V683.938H224V684.75H222.375V683.938H221.562V683.125H219.938V683.938H219.125V684.75H217.5V683.938H218.312V683.125H219.125V682.312H219.938V679.875H217.5V679.062ZM224 681.5H226.438V679.062H228.062V684.75H226.438V682.312H224V681.5ZM218.312 686.375H219.938V685.562H226.438V686.375H228.062V688.812H226.438V689.625H219.938V688.812H218.312V686.375ZM219.938 687.188V688H220.75V688.812H225.625V688H226.438V687.188H225.625V686.375H220.75V687.188H219.938ZM230.5 679.875H236.188V683.938H232.125V688H234.562V687.188H236.188V688H235.375V688.812H231.312V688H230.5V683.125H234.562V680.688H230.5V679.875ZM239.438 679.062H241.062V689.625H239.438V679.062ZM243.5 679.875H245.938V679.062H247.562V679.875H250V680.688H243.5V679.875ZM243.5 683.125H244.312V682.312H245.125V681.5H248.375V682.312H249.188V683.125H250V687.188H249.188V688H248.375V688.812H245.125V688H244.312V687.188H243.5V683.125ZM245.125 683.125V687.188H245.938V688H247.562V687.188H248.375V683.125H247.562V682.312H245.938V683.125H245.125ZM250.812 679.062H252.438V683.938H253.25V679.062H254.875V689.625H253.25V684.75H252.438V689.625H250.812V679.062ZM261.375 679.875H263V682.312H269.5V679.875H271.125V684.75H270.312V685.562H262.188V684.75H261.375V679.875ZM263 683.125V684.75H269.5V683.125H263ZM260.562 688H265.438V685.562H267.062V688H271.938V688.812H260.562V688ZM273.562 688H274.375V687.188H275.188V686.375H276V679.875H277.625V686.375H278.438V687.188H279.25V688H280.062V688.812H278.438V688H277.625V687.188H276V688H275.188V688.812H273.562V688ZM279.25 683.938H280.875V679.062H282.5V689.625H280.875V684.75H279.25V683.938ZM283.312 679.062H284.938V689.625H283.312V679.062ZM287.375 681.5H288.188V680.688H289V679.875H295.5V680.688H296.312V681.5H297.125V683.938H296.312V684.75H295.5V685.562H289V684.75H288.188V683.938H287.375V681.5ZM289 681.5V683.938H289.812V684.75H294.688V683.938H295.5V681.5H294.688V680.688H289.812V681.5H289ZM286.562 688H289V685.562H290.625V688H293.875V685.562H295.5V688H297.938V688.812H286.562V688ZM299.562 679.875H301.188V685.562H299.562V679.875ZM299.562 686.375H301.188V688H299.562V686.375ZM307.688 680.688H308.5V679.875H309.312V679.062H310.938V679.875H310.125V680.688H309.312V688H310.125V688.812H310.938V689.625H309.312V688.812H308.5V688H307.688V680.688ZM312.562 680.688H313.375V679.875H314.188V679.062H317.438V679.875H318.25V680.688H319.062V683.125H318.25V683.938H317.438V684.75H314.188V683.938H313.375V683.125H312.562V680.688ZM314.188 680.688V683.125H315V683.938H316.625V683.125H317.438V680.688H316.625V679.875H315V680.688H314.188ZM320.688 679.062H322.312V680.688H324.75V681.5H322.312V682.312H324.75V683.125H322.312V684.75H320.688V679.062ZM313.375 685.562H322.312V688.812H321.5V689.625H320.688V686.375H313.375V685.562ZM328.812 679.875H334.5V680.688H330.438V683.125H333.688V683.938H334.5V687.188H333.688V688H328.812V687.188H332.875V683.938H328.812V679.875ZM336.938 680.688H341V679.875H342.625V680.688H346.688V681.5H342.625V683.125H343.438V683.938H344.25V684.75H346.688V685.562H343.438V684.75H342.625V683.938H341V684.75H340.188V685.562H336.938V684.75H339.375V683.938H340.188V683.125H341V681.5H336.938V680.688ZM336.125 688H341V685.562H342.625V688H347.5V688.812H336.125V688ZM348.312 679.062H349.938V679.875H350.75V680.688H351.562V688H350.75V688.812H349.938V689.625H348.312V688.812H349.125V688H349.938V680.688H349.125V679.875H348.312V679.062Z" fill="#5A3800"/>
<g filter="url(#filter1_d_264_2597)">
<mask id="path-18-inside-8_264_2597" fill="white">
<path d="M16 725C16 718.373 21.3726 713 28 713H362C368.627 713 374 718.373 374 725V769C374 775.627 368.627 781 362 781H28C21.3726 781 16 775.627 16 769V725Z"/>
</mask>
<path d="M16 725C16 718.373 21.3726 713 28 713H362C368.627 713 374 718.373 374 725V769C374 775.627 368.627 781 362 781H28C21.3726 781 16 775.627 16 769V725Z" fill="#49CA34" shape-rendering="crispEdges"/>
<path d="M28 713V716H362V713V710H28V713ZM374 725H371V769H374H377V725H374ZM362 781V778H28V781V784H362V781ZM16 769H19V725H16H13V769H16ZM28 781V778C23.0294 778 19 773.971 19 769H16H13C13 777.284 19.7157 784 28 784V781ZM374 769H371C371 773.971 366.971 778 362 778V781V784C370.284 784 377 777.284 377 769H374ZM362 713V716C366.971 716 371 720.029 371 725H374H377C377 716.716 370.284 710 362 710V713ZM28 713V710C19.7157 710 13 716.716 13 725H16H19C19 720.029 23.0294 716 28 716V713Z" fill="#1B4A1B" mask="url(#path-18-inside-8_264_2597)"/>
<path d="M135.775 745.75H139.525V744.5H140.775V743.25H142.025V739.5H144.525V743.25H145.775V744.5H147.025V745.75H150.775V747H145.775V745.75H144.525V744.5H142.025V745.75H140.775V747H135.775V745.75ZM134.525 748.25H152.025V749.5H144.525V754.5H142.025V749.5H134.525V748.25ZM154.225 740.75H155.475V739.5H156.725V738.25H161.725V739.5H162.975V740.75H164.225V744.5H162.975V745.75H161.725V747H156.725V745.75H155.475V744.5H154.225V740.75ZM156.725 740.75V744.5H157.975V745.75H160.475V744.5H161.725V740.75H160.475V739.5H157.975V740.75H156.725ZM164.225 742H167.975V738.25H170.475V747H167.975V743.25H164.225V742ZM155.475 748.25H157.975V750.75H167.975V748.25H170.475V753.25H169.225V754.5H156.725V753.25H155.475V748.25ZM157.975 752V753.25H167.975V752H157.975ZM179.875 752H181.125V750.75H182.375V749.5H183.625V739.5H186.125V749.5H187.375V750.75H188.625V752H189.875V753.25H187.375V752H186.125V750.75H183.625V752H182.375V753.25H179.875V752ZM193.625 738.25H196.125V754.5H193.625V738.25ZM199.575 738.25H209.575V739.5H205.825V743.25H207.075V744.5H208.325V745.75H209.575V747H207.075V745.75H205.825V744.5H203.325V745.75H202.075V747H199.575V745.75H200.825V744.5H202.075V743.25H203.325V739.5H199.575V738.25ZM212.075 738.25H214.575V742H218.325V743.25H214.575V747H212.075V738.25ZM200.825 748.25H214.575V753.25H213.325V754.5H212.075V749.5H200.825V748.25ZM219.275 739.5H223.025V738.25H225.525V739.5H229.275V740.75H219.275V739.5ZM219.275 744.5H220.525V743.25H221.775V742H226.775V743.25H228.025V744.5H229.275V750.75H228.025V752H226.775V753.25H221.775V752H220.525V750.75H219.275V744.5ZM221.775 744.5V750.75H223.025V752H225.525V750.75H226.775V744.5H225.525V743.25H223.025V744.5H221.775ZM231.775 738.25H234.275V745.75H238.025V747H234.275V754.5H231.775V738.25ZM238.975 739.5H246.475V750.75H245.225V752H243.975V753.25H240.225V752H242.725V750.75H243.975V740.75H238.975V739.5ZM252.725 738.25H255.225V754.5H252.725V738.25Z" fill="white"/>
</g>
<g filter="url(#filter2_d_264_2597)">
<mask id="path-21-inside-9_264_2597" fill="white">
<path d="M16 109C16 102.373 21.3726 97 28 97H362C368.627 97 374 102.373 374 109V157.5C374 164.127 368.627 169.5 362 169.5H28C21.3726 169.5 16 164.127 16 157.5V109Z"/>
</mask>
<path d="M16 109C16 102.373 21.3726 97 28 97H362C368.627 97 374 102.373 374 109V157.5C374 164.127 368.627 169.5 362 169.5H28C21.3726 169.5 16 164.127 16 157.5V109Z" fill="url(#paint1_linear_264_2597)" shape-rendering="crispEdges"/>
<path d="M28 97V100H362V97V94H28V97ZM374 109H371V157.5H374H377V109H374ZM362 169.5V166.5H28V169.5V172.5H362V169.5ZM16 157.5H19V109H16H13V157.5H16ZM28 169.5V166.5C23.0294 166.5 19 162.471 19 157.5H16H13C13 165.784 19.7157 172.5 28 172.5V169.5ZM374 157.5H371C371 162.471 366.971 166.5 362 166.5V169.5V172.5C370.284 172.5 377 165.784 377 157.5H374ZM362 97V100C366.971 100 371 104.029 371 109H374H377C377 100.716 370.284 94 362 94V97ZM28 97V94C19.7157 94 13 100.716 13 109H16H19C19 104.029 23.0294 100 28 100V97Z" fill="#FFD700" mask="url(#path-21-inside-9_264_2597)"/>
<path d="M147.062 124.91H160.062V111.91H147.062V124.91ZM164.125 115.875H170.625V116.688H168.188V124H166.562V116.688H164.125V115.875ZM171.438 116.688H172.25V115.875H176.312V116.688H177.125V123.188H176.312V124H172.25V123.188H171.438V116.688ZM173.062 116.688V123.188H175.5V116.688H173.062ZM177.938 115.875H182.812V116.688H183.625V123.188H182.812V124H177.938V115.875ZM179.562 116.688V123.188H182V116.688H179.562ZM184.438 116.688H185.25V115.875H189.312V116.688H190.125V124H188.5V119.938H186.062V124H184.438V116.688ZM186.062 116.688V119.125H188.5V116.688H186.062ZM190.938 115.875H192.562V119.125H194.188V115.875H195.812V119.125H195V119.938H194.188V124H192.562V119.938H191.75V119.125H190.938V115.875ZM196.625 115.062H198.25V117.5H197.438V118.312H196.625V115.062ZM199.062 116.688H199.875V115.875H203.938V116.688H204.75V117.5H203.125V116.688H200.688V119.125H203.938V119.938H204.75V123.188H203.938V124H199.875V123.188H199.062V122.375H200.688V123.188H203.125V119.938H199.875V119.125H199.062V116.688ZM209.625 116.688H210.438V115.875H214.5V116.688H215.312V123.188H214.5V124H213.688V124.812H215.312V125.625H212.875V124.812H212.062V124H210.438V123.188H209.625V116.688ZM211.25 116.688V123.188H213.688V116.688H211.25ZM216.125 115.875H217.75V123.188H220.188V115.875H221.812V123.188H221V124H216.938V123.188H216.125V115.875ZM222.625 116.688H223.438V115.875H228.312V116.688H224.25V119.125H227.5V119.938H224.25V123.188H228.312V124H223.438V123.188H222.625V116.688ZM229.125 116.688H229.938V115.875H234V116.688H234.812V117.5H233.188V116.688H230.75V119.125H234V119.938H234.812V123.188H234V124H229.938V123.188H229.125V122.375H230.75V123.188H233.188V119.938H229.938V119.125H229.125V116.688ZM235.625 115.875H242.125V116.688H239.688V124H238.062V116.688H235.625V115.875Z" fill="#FFD700"/>
<path d="M139.688 142H140.625V141.062H141.562V140.125H149.062V141.062H150V142H150.938V144.812H150V145.75H149.062V146.688H141.562V145.75H140.625V144.812H139.688V142ZM141.562 142V144.812H142.5V145.75H148.125V144.812H149.062V142H148.125V141.062H142.5V142H141.562ZM138.75 149.5H144.375V146.688H146.25V149.5H151.875V150.438H138.75V149.5ZM154.688 139.188H156.562V142.938H165.938V143.875H155.625V142.938H154.688V139.188ZM153.75 144.812H166.875V145.75H153.75V144.812ZM154.688 146.688H165.938V149.5H156.562V150.438H165.938V151.375H155.625V150.438H154.688V148.562H164.062V147.625H154.688V146.688ZM168.75 142H169.688V141.062H170.625V140.125H174.375V141.062H175.312V142H176.25V144.812H175.312V145.75H174.375V146.688H170.625V145.75H169.688V144.812H168.75V142ZM170.625 142V144.812H171.562V145.75H173.438V144.812H174.375V142H173.438V141.062H171.562V142H170.625ZM168.75 149.5H179.062V139.188H180.938V151.375H179.062V150.438H168.75V149.5ZM189.375 144.812H192.188V143.875H193.125V142.938H194.062V140.125H195.938V142.938H196.875V143.875H197.812V144.812H200.625V145.75H196.875V144.812H195.938V143.875H194.062V144.812H193.125V145.75H189.375V144.812ZM188.438 146.688H201.562V147.625H195.938V151.375H194.062V147.625H188.438V146.688ZM203.438 141.062H204.375V140.125H205.312V139.188H209.062V140.125H210V141.062H210.938V143.875H210V144.812H209.062V145.75H205.312V144.812H204.375V143.875H203.438V141.062ZM205.312 141.062V143.875H206.25V144.812H208.125V143.875H209.062V141.062H208.125V140.125H206.25V141.062H205.312ZM210.938 142H213.75V139.188H215.625V145.75H213.75V142.938H210.938V142ZM204.375 146.688H206.25V148.562H213.75V146.688H215.625V150.438H214.688V151.375H205.312V150.438H204.375V146.688ZM206.25 149.5V150.438H213.75V149.5H206.25ZM224.062 140.125H235.312V141.062H230.625V142.938H231.562V143.875H232.5V144.812H235.312V145.75H231.562V144.812H230.625V143.875H228.75V144.812H227.812V145.75H224.062V144.812H226.875V143.875H227.812V142.938H228.75V141.062H224.062V140.125ZM223.125 146.688H236.25V147.625H230.625V151.375H228.75V147.625H223.125V146.688ZM238.125 140.125H245.625V141.062H242.812V147.625H243.75V148.562H244.688V149.5H245.625V150.438H243.75V149.5H242.812V148.562H240.938V149.5H240V150.438H238.125V149.5H239.062V148.562H240V147.625H240.938V141.062H238.125V140.125ZM244.688 144.812H246.562V139.188H248.438V151.375H246.562V145.75H244.688V144.812ZM249.375 139.188H251.25V151.375H249.375V139.188Z" fill="white"/>
</g>
<g filter="url(#filter3_d_264_2597)">
<mask id="path-25-inside-10_264_2597" fill="white">
<path d="M16 201.5C16 194.873 21.3726 189.5 28 189.5H362C368.627 189.5 374 194.873 374 201.5V271.5C374 278.127 368.627 283.5 362 283.5H28C21.3726 283.5 16 278.127 16 271.5V201.5Z"/>
</mask>
<path d="M16 201.5C16 194.873 21.3726 189.5 28 189.5H362C368.627 189.5 374 194.873 374 201.5V271.5C374 278.127 368.627 283.5 362 283.5H28C21.3726 283.5 16 278.127 16 271.5V201.5Z" fill="white" fill-opacity="0.92" shape-rendering="crispEdges"/>
<path d="M28 189.5V192.5H362V189.5V186.5H28V189.5ZM374 201.5H371V271.5H374H377V201.5H374ZM362 283.5V280.5H28V283.5V286.5H362V283.5ZM16 271.5H19V201.5H16H13V271.5H16ZM28 283.5V280.5C23.0294 280.5 19 276.471 19 271.5H16H13C13 279.784 19.7157 286.5 28 286.5V283.5ZM374 271.5H371C371 276.471 366.971 280.5 362 280.5V283.5V286.5C370.284 286.5 377 279.784 377 271.5H374ZM362 189.5V192.5C366.971 192.5 371 196.529 371 201.5H374H377C377 193.216 370.284 186.5 362 186.5V189.5ZM28 189.5V186.5C19.7157 186.5 13 193.216 13 201.5H16H19C19 196.529 23.0294 192.5 28 192.5V189.5Z" fill="#2A5A8A" mask="url(#path-25-inside-10_264_2597)"/>
<g filter="url(#filter4_d_264_2597)">
<path d="M39 214.5C39 210.082 42.5817 206.5 47 206.5H91C95.4183 206.5 99 210.082 99 214.5V258.5C99 262.918 95.4183 266.5 91 266.5H47C42.5817 266.5 39 262.918 39 258.5V214.5Z" fill="#4A90D9" shape-rendering="crispEdges"/>
<path d="M47 207.5H91C94.866 207.5 98 210.634 98 214.5V258.5C98 262.366 94.866 265.5 91 265.5H47C43.134 265.5 40 262.366 40 258.5V214.5C40 210.634 43.134 207.5 47 207.5Z" stroke="#2A5A8A" stroke-width="2" shape-rendering="crispEdges"/>
<path d="M54.5 250.53H83.5V221.53H54.5V250.53Z" fill="#0A0A0A"/>
</g>
<path d="M115.49 216.292H127.376V218.056H115.49V216.292ZM120.502 217.258H122.77V219.89H120.502V217.258ZM116.792 220.842H126.074V222.634H116.792V220.842ZM116.792 218.994H119.046V221.626H116.792V218.994ZM116.974 210.104H119.2V211.266H123.652V210.104H125.892V215.578H116.974V210.104ZM119.2 212.946V213.842H123.652V212.946H119.2ZM133.129 210.02H135.103V210.58C135.103 211.084 135.033 211.579 134.893 212.064C134.762 212.54 134.552 212.993 134.263 213.422C133.983 213.842 133.624 214.225 133.185 214.57C132.756 214.915 132.242 215.209 131.645 215.452C131.048 215.685 130.366 215.858 129.601 215.97L128.733 214.164C129.405 214.08 129.984 213.945 130.469 213.758C130.964 213.571 131.379 213.357 131.715 213.114C132.06 212.862 132.336 212.591 132.541 212.302C132.746 212.013 132.896 211.723 132.989 211.434C133.082 211.135 133.129 210.851 133.129 210.58V210.02ZM133.563 210.02H135.537V210.58C135.537 210.851 135.584 211.135 135.677 211.434C135.77 211.723 135.92 212.013 136.125 212.302C136.33 212.591 136.601 212.862 136.937 213.114C137.282 213.357 137.698 213.571 138.183 213.758C138.678 213.945 139.261 214.08 139.933 214.164L139.065 215.97C138.3 215.858 137.618 215.685 137.021 215.452C136.424 215.209 135.906 214.915 135.467 214.57C135.038 214.225 134.678 213.842 134.389 213.422C134.109 212.993 133.899 212.54 133.759 212.064C133.628 211.579 133.563 211.084 133.563 210.58V210.02ZM133.143 218.112H135.397V222.83H133.143V218.112ZM128.383 216.684H140.269V218.504H128.383V216.684ZM149.41 209.698H151.664V219.372H149.41V209.698ZM151.048 213.324H153.302V215.172H151.048V213.324ZM143.068 220.842H152.098V222.634H143.068V220.842ZM143.068 218.574H145.336V221.416H143.068V218.574ZM141.668 215.788H142.816C143.712 215.788 144.496 215.779 145.168 215.76C145.849 215.741 146.47 215.704 147.03 215.648C147.59 215.592 148.15 215.508 148.71 215.396L148.92 217.188C148.35 217.3 147.772 217.384 147.184 217.44C146.596 217.496 145.952 217.533 145.252 217.552C144.552 217.571 143.74 217.58 142.816 217.58H141.668V215.788ZM141.654 210.454H147.702V214.794H143.908V216.446H141.668V213.142H145.476V212.232H141.654V210.454ZM156.101 217.72C156.035 217.291 156.059 216.908 156.171 216.572C156.283 216.227 156.441 215.919 156.647 215.648C156.861 215.368 157.076 215.111 157.291 214.878C157.515 214.645 157.701 214.421 157.851 214.206C158.009 213.982 158.089 213.753 158.089 213.52C158.089 213.305 158.042 213.133 157.949 213.002C157.865 212.862 157.748 212.759 157.599 212.694C157.449 212.619 157.277 212.582 157.081 212.582C156.791 212.582 156.535 212.652 156.311 212.792C156.096 212.923 155.881 213.095 155.667 213.31L154.295 212.05C154.677 211.611 155.13 211.257 155.653 210.986C156.185 210.715 156.763 210.58 157.389 210.58C157.977 210.58 158.504 210.678 158.971 210.874C159.437 211.061 159.806 211.359 160.077 211.77C160.347 212.171 160.483 212.699 160.483 213.352C160.483 213.744 160.403 214.089 160.245 214.388C160.086 214.677 159.89 214.948 159.657 215.2C159.423 215.452 159.195 215.699 158.971 215.942C158.747 216.185 158.565 216.451 158.425 216.74C158.285 217.02 158.233 217.347 158.271 217.72H156.101ZM157.179 221.696C156.749 221.696 156.395 221.547 156.115 221.248C155.835 220.94 155.695 220.571 155.695 220.142C155.695 219.703 155.835 219.339 156.115 219.05C156.395 218.751 156.749 218.602 157.179 218.602C157.608 218.602 157.963 218.751 158.243 219.05C158.523 219.339 158.663 219.703 158.663 220.142C158.663 220.571 158.523 220.94 158.243 221.248C157.963 221.547 157.608 221.696 157.179 221.696Z" fill="#0A0A0A"/>
<mask id="path-31-inside-11_264_2597" fill="white">
<path d="M115 240.5C115 236.082 118.582 232.5 123 232.5H225C229.418 232.5 233 236.082 233 240.5V258.5C233 262.918 229.418 266.5 225 266.5H123C118.582 266.5 115 262.918 115 258.5V240.5Z"/>
</mask>
<path d="M115 240.5C115 236.082 118.582 232.5 123 232.5H225C229.418 232.5 233 236.082 233 240.5V258.5C233 262.918 229.418 266.5 225 266.5H123C118.582 266.5 115 262.918 115 258.5V240.5Z" fill="#4A90D9"/>
<path d="M123 232.5V234.5H225V232.5V230.5H123V232.5ZM233 240.5H231V258.5H233H235V240.5H233ZM225 266.5V264.5H123V266.5V268.5H225V266.5ZM115 258.5H117V240.5H115H113V258.5H115ZM123 266.5V264.5C119.686 264.5 117 261.814 117 258.5H115H113C113 264.023 117.477 268.5 123 268.5V266.5ZM233 258.5H231C231 261.814 228.314 264.5 225 264.5V266.5V268.5C230.523 268.5 235 264.023 235 258.5H233ZM225 232.5V234.5C228.314 234.5 231 237.186 231 240.5H233H235C235 234.977 230.523 230.5 225 230.5V232.5ZM123 232.5V230.5C117.477 230.5 113 234.977 113 240.5H115H117C117 237.186 119.686 234.5 123 234.5V232.5Z" fill="#2A5A8A" mask="url(#path-31-inside-11_264_2597)"/>
<path d="M135.609 244.444H137.121V255.556H135.609V244.444ZM134.193 248.632H136.041V249.916H134.193V248.632ZM130.881 245.812H132.417C132.417 246.596 132.349 247.34 132.213 248.044C132.085 248.748 131.869 249.416 131.565 250.048C131.261 250.672 130.849 251.256 130.329 251.8C129.817 252.336 129.173 252.832 128.397 253.288L127.473 252.172C128.313 251.676 128.981 251.132 129.477 250.54C129.981 249.94 130.341 249.28 130.557 248.56C130.773 247.832 130.881 247.024 130.881 246.136V245.812ZM128.025 245.812H131.349V247.084H128.025V245.812ZM133.137 244.732H134.637V255.076H133.137V244.732ZM139.292 244.924H140.888V249.628H139.292V244.924ZM139.292 249.412H140.156C140.7 249.412 141.216 249.404 141.704 249.388C142.2 249.364 142.684 249.332 143.156 249.292C143.636 249.244 144.128 249.176 144.632 249.088L144.8 250.348C144.288 250.444 143.78 250.516 143.276 250.564C142.78 250.612 142.276 250.648 141.764 250.672C141.252 250.688 140.716 250.696 140.156 250.696H139.292V249.412ZM146.348 244.444H147.956V250.948H146.348V244.444ZM143.708 245.428H146.744V246.64H143.708V245.428ZM143.708 247.384H146.744V248.584H143.708V247.384ZM140.588 251.404H147.956V255.448H140.588V251.404ZM146.384 252.652H142.16V254.188H146.384V252.652ZM160.034 244.432H161.63V255.58H160.034V244.432ZM155.642 245.212C156.21 245.212 156.714 245.376 157.154 245.704C157.594 246.024 157.938 246.484 158.186 247.084C158.442 247.676 158.57 248.376 158.57 249.184C158.57 250 158.442 250.708 158.186 251.308C157.938 251.9 157.594 252.36 157.154 252.688C156.714 253.008 156.21 253.168 155.642 253.168C155.082 253.168 154.582 253.008 154.142 252.688C153.702 252.36 153.354 251.9 153.098 251.308C152.85 250.708 152.726 250 152.726 249.184C152.726 248.376 152.85 247.676 153.098 247.084C153.354 246.484 153.702 246.024 154.142 245.704C154.582 245.376 155.082 245.212 155.642 245.212ZM155.642 246.664C155.37 246.664 155.13 246.76 154.922 246.952C154.714 247.144 154.55 247.428 154.43 247.804C154.318 248.172 154.262 248.632 154.262 249.184C154.262 249.728 154.318 250.192 154.43 250.576C154.55 250.952 154.714 251.236 154.922 251.428C155.13 251.62 155.37 251.716 155.642 251.716C155.922 251.716 156.166 251.62 156.374 251.428C156.582 251.236 156.742 250.952 156.854 250.576C156.974 250.192 157.034 249.728 157.034 249.184C157.034 248.632 156.974 248.172 156.854 247.804C156.742 247.428 156.582 247.144 156.374 246.952C156.166 246.76 155.922 246.664 155.642 246.664ZM163.441 246.124H168.757V247.384H163.441V246.124ZM166.117 247.888C166.589 247.888 167.005 248 167.365 248.224C167.733 248.448 168.021 248.76 168.229 249.16C168.445 249.552 168.553 250.008 168.553 250.528C168.553 251.048 168.445 251.508 168.229 251.908C168.021 252.3 167.733 252.608 167.365 252.832C167.005 253.056 166.589 253.168 166.117 253.168C165.645 253.168 165.225 253.056 164.857 252.832C164.489 252.608 164.201 252.3 163.993 251.908C163.785 251.508 163.681 251.048 163.681 250.528C163.681 250.008 163.785 249.552 163.993 249.16C164.201 248.76 164.489 248.448 164.857 248.224C165.233 248 165.653 247.888 166.117 247.888ZM166.117 249.208C165.925 249.208 165.749 249.26 165.589 249.364C165.429 249.468 165.305 249.62 165.217 249.82C165.129 250.012 165.085 250.248 165.085 250.528C165.085 250.808 165.129 251.048 165.217 251.248C165.305 251.448 165.429 251.6 165.589 251.704C165.749 251.8 165.925 251.848 166.117 251.848C166.317 251.848 166.493 251.8 166.645 251.704C166.797 251.6 166.917 251.448 167.005 251.248C167.093 251.048 167.137 250.808 167.137 250.528C167.137 250.248 167.093 250.012 167.005 249.82C166.917 249.62 166.797 249.468 166.645 249.364C166.493 249.26 166.317 249.208 166.117 249.208ZM171.481 244.444H172.993V255.556H171.481V244.444ZM170.149 248.968H171.973V250.252H170.149V248.968ZM169.141 244.648H170.629V255.088H169.141V244.648ZM165.337 244.744H166.909V246.916H165.337V244.744ZM177.211 252.976H187.279V254.272H177.211V252.976ZM181.435 250.6H183.019V253.288H181.435V250.6ZM178.267 245.152H179.863V246.868H184.591V245.152H186.175V250.936H178.267V245.152ZM179.863 248.116V249.664H184.591V248.116H179.863ZM195.954 244.432H197.538V255.58H195.954V244.432ZM194.214 248.44H196.278V249.724H194.214V248.44ZM188.622 251.704H189.534C190.142 251.704 190.71 251.696 191.238 251.68C191.774 251.664 192.298 251.636 192.81 251.596C193.322 251.548 193.846 251.48 194.382 251.392L194.526 252.688C193.974 252.776 193.434 252.844 192.906 252.892C192.378 252.94 191.838 252.972 191.286 252.988C190.742 253.004 190.158 253.012 189.534 253.012H188.622V251.704ZM188.61 245.38H193.614V249.568H190.206V252.088H188.622V248.308H192.042V246.652H188.61V245.38ZM206.381 244.432H207.989V255.544H206.381V244.432ZM207.581 248.692H209.537V250H207.581V248.692ZM203.465 245.584H205.037C205.037 246.696 204.877 247.748 204.557 248.74C204.245 249.732 203.725 250.644 202.997 251.476C202.277 252.3 201.301 253.02 200.069 253.636L199.169 252.424C200.145 251.92 200.949 251.352 201.581 250.72C202.221 250.088 202.693 249.372 202.997 248.572C203.309 247.764 203.465 246.864 203.465 245.872V245.584ZM199.781 245.584H204.293V246.868H199.781V245.584ZM217.984 244.444H219.58V255.556H217.984V244.444ZM214.708 245.596H216.28C216.28 246.444 216.196 247.256 216.028 248.032C215.868 248.8 215.596 249.524 215.212 250.204C214.836 250.884 214.316 251.516 213.652 252.1C212.996 252.676 212.176 253.204 211.192 253.684L210.352 252.424C211.424 251.904 212.276 251.332 212.908 250.708C213.548 250.076 214.008 249.364 214.288 248.572C214.568 247.772 214.708 246.876 214.708 245.884V245.596ZM210.952 245.596H215.452V246.868H210.952V245.596Z" fill="white"/>
</g>
<g filter="url(#filter5_d_264_2597)">
<mask id="path-34-inside-12_264_2597" fill="white">
<path d="M16 311.5C16 304.873 21.3726 299.5 28 299.5H362C368.627 299.5 374 304.873 374 311.5V381.5C374 388.127 368.627 393.5 362 393.5H28C21.3726 393.5 16 388.127 16 381.5V311.5Z"/>
</mask>
<path d="M16 311.5C16 304.873 21.3726 299.5 28 299.5H362C368.627 299.5 374 304.873 374 311.5V381.5C374 388.127 368.627 393.5 362 393.5H28C21.3726 393.5 16 388.127 16 381.5V311.5Z" fill="white" fill-opacity="0.92" shape-rendering="crispEdges"/>
<path d="M28 299.5V302.5H362V299.5V296.5H28V299.5ZM374 311.5H371V381.5H374H377V311.5H374ZM362 393.5V390.5H28V393.5V396.5H362V393.5ZM16 381.5H19V311.5H16H13V381.5H16ZM28 393.5V390.5C23.0294 390.5 19 386.471 19 381.5H16H13C13 389.784 19.7157 396.5 28 396.5V393.5ZM374 381.5H371C371 386.471 366.971 390.5 362 390.5V393.5V396.5C370.284 396.5 377 389.784 377 381.5H374ZM362 299.5V302.5C366.971 302.5 371 306.529 371 311.5H374H377C377 303.216 370.284 296.5 362 296.5V299.5ZM28 299.5V296.5C19.7157 296.5 13 303.216 13 311.5H16H19C19 306.529 23.0294 302.5 28 302.5V299.5Z" fill="#8B4A10" mask="url(#path-34-inside-12_264_2597)"/>
<g filter="url(#filter6_d_264_2597)">
<path d="M39 324.5C39 320.082 42.5817 316.5 47 316.5H91C95.4183 316.5 99 320.082 99 324.5V368.5C99 372.918 95.4183 376.5 91 376.5H47C42.5817 376.5 39 372.918 39 368.5V324.5Z" fill="#E67E22" shape-rendering="crispEdges"/>
<path d="M47 317.5H91C94.866 317.5 98 320.634 98 324.5V368.5C98 372.366 94.866 375.5 91 375.5H47C43.134 375.5 40 372.366 40 368.5V324.5C40 320.634 43.134 317.5 47 317.5Z" stroke="#8B4A10" stroke-width="2" shape-rendering="crispEdges"/>
<path d="M54.5 360.53H83.5V331.53H54.5V360.53Z" fill="#0A0A0A"/>
</g>
<path d="M115.49 326.292H127.376V328.056H115.49V326.292ZM120.502 327.258H122.77V329.89H120.502V327.258ZM116.792 330.842H126.074V332.634H116.792V330.842ZM116.792 328.994H119.046V331.626H116.792V328.994ZM116.974 320.104H119.2V321.266H123.652V320.104H125.892V325.578H116.974V320.104ZM119.2 322.946V323.842H123.652V322.946H119.2ZM133.129 320.02H135.103V320.58C135.103 321.084 135.033 321.579 134.893 322.064C134.762 322.54 134.552 322.993 134.263 323.422C133.983 323.842 133.624 324.225 133.185 324.57C132.756 324.915 132.242 325.209 131.645 325.452C131.048 325.685 130.366 325.858 129.601 325.97L128.733 324.164C129.405 324.08 129.984 323.945 130.469 323.758C130.964 323.571 131.379 323.357 131.715 323.114C132.06 322.862 132.336 322.591 132.541 322.302C132.746 322.013 132.896 321.723 132.989 321.434C133.082 321.135 133.129 320.851 133.129 320.58V320.02ZM133.563 320.02H135.537V320.58C135.537 320.851 135.584 321.135 135.677 321.434C135.77 321.723 135.92 322.013 136.125 322.302C136.33 322.591 136.601 322.862 136.937 323.114C137.282 323.357 137.698 323.571 138.183 323.758C138.678 323.945 139.261 324.08 139.933 324.164L139.065 325.97C138.3 325.858 137.618 325.685 137.021 325.452C136.424 325.209 135.906 324.915 135.467 324.57C135.038 324.225 134.678 323.842 134.389 323.422C134.109 322.993 133.899 322.54 133.759 322.064C133.628 321.579 133.563 321.084 133.563 320.58V320.02ZM133.143 328.112H135.397V332.83H133.143V328.112ZM128.383 326.684H140.269V328.504H128.383V326.684ZM145.462 320.51C146.152 320.51 146.773 320.655 147.324 320.944C147.884 321.224 148.322 321.616 148.64 322.12C148.966 322.615 149.13 323.184 149.13 323.828C149.13 324.463 148.966 325.032 148.64 325.536C148.322 326.04 147.884 326.437 147.324 326.726C146.773 327.006 146.152 327.146 145.462 327.146C144.771 327.146 144.146 327.006 143.586 326.726C143.035 326.437 142.596 326.04 142.27 325.536C141.943 325.032 141.78 324.463 141.78 323.828C141.78 323.184 141.943 322.615 142.27 322.12C142.596 321.616 143.035 321.224 143.586 320.944C144.146 320.655 144.771 320.51 145.462 320.51ZM145.462 322.442C145.191 322.442 144.944 322.493 144.72 322.596C144.496 322.699 144.318 322.853 144.188 323.058C144.057 323.263 143.992 323.52 143.992 323.828C143.992 324.136 144.057 324.397 144.188 324.612C144.318 324.817 144.496 324.971 144.72 325.074C144.944 325.177 145.191 325.228 145.462 325.228C145.732 325.228 145.975 325.177 146.19 325.074C146.414 324.971 146.591 324.817 146.722 324.612C146.852 324.397 146.918 324.136 146.918 323.828C146.918 323.52 146.852 323.263 146.722 323.058C146.591 322.853 146.414 322.699 146.19 322.596C145.975 322.493 145.732 322.442 145.462 322.442ZM150.096 319.67H152.35V332.858H150.096V319.67ZM141.556 330.31L141.304 328.504C142.06 328.504 142.895 328.499 143.81 328.49C144.724 328.471 145.667 328.434 146.638 328.378C147.608 328.313 148.546 328.215 149.452 328.084L149.606 329.708C148.682 329.895 147.739 330.03 146.778 330.114C145.826 330.198 144.902 330.254 144.006 330.282C143.119 330.301 142.302 330.31 141.556 330.31ZM158.026 325.382H159.09C159.977 325.382 160.728 325.373 161.344 325.354C161.96 325.335 162.501 325.303 162.968 325.256C163.444 325.2 163.911 325.125 164.368 325.032L164.578 326.796C164.111 326.908 163.631 326.992 163.136 327.048C162.641 327.104 162.072 327.141 161.428 327.16C160.784 327.179 160.005 327.188 159.09 327.188H158.026V325.382ZM158.026 320.426H163.836V322.204H160.266V325.914H158.026V320.426ZM166.16 319.684H168.428V328.378H166.16V319.684ZM163.36 322.764H166.72V324.556H163.36V322.764ZM162.772 327.79H164.69V328.07C164.69 328.583 164.592 329.097 164.396 329.61C164.2 330.123 163.897 330.599 163.486 331.038C163.075 331.477 162.548 331.85 161.904 332.158C161.26 332.466 160.49 332.676 159.594 332.788L158.768 331.038C159.524 330.935 160.159 330.777 160.672 330.562C161.185 330.338 161.596 330.081 161.904 329.792C162.212 329.493 162.431 329.195 162.562 328.896C162.702 328.597 162.772 328.322 162.772 328.07V327.79ZM163.164 327.79H165.082V328.07C165.082 328.35 165.147 328.644 165.278 328.952C165.409 329.251 165.628 329.545 165.936 329.834C166.244 330.114 166.655 330.361 167.168 330.576C167.691 330.791 168.335 330.945 169.1 331.038L168.26 332.788C167.364 332.667 166.594 332.457 165.95 332.158C165.306 331.859 164.779 331.5 164.368 331.08C163.957 330.651 163.654 330.179 163.458 329.666C163.262 329.153 163.164 328.621 163.164 328.07V327.79ZM162.772 327.79H164.69V328.07C164.69 328.583 164.592 329.097 164.396 329.61C164.2 330.123 163.897 330.599 163.486 331.038C163.075 331.477 162.543 331.85 161.89 332.158C161.246 332.466 160.476 332.676 159.58 332.788L158.768 331.038C159.524 330.935 160.159 330.777 160.672 330.562C161.185 330.338 161.596 330.081 161.904 329.792C162.212 329.493 162.431 329.195 162.562 328.896C162.702 328.597 162.772 328.322 162.772 328.07V327.79ZM163.164 327.79H165.082V328.07C165.082 328.35 165.147 328.644 165.278 328.952C165.409 329.251 165.628 329.545 165.936 329.834C166.244 330.114 166.655 330.361 167.168 330.576C167.691 330.791 168.335 330.945 169.1 331.038L168.274 332.788C167.378 332.667 166.603 332.457 165.95 332.158C165.306 331.859 164.779 331.5 164.368 331.08C163.957 330.651 163.654 330.179 163.458 329.666C163.262 329.153 163.164 328.621 163.164 328.07V327.79ZM175.385 321.98H177.247V323.8H175.385V321.98ZM179.333 319.698H181.475V327.342H179.333V319.698ZM176.687 319.908H178.787V327.244H176.687V319.908ZM172.417 327.804H181.475V332.704H172.417V327.804ZM179.263 329.554H174.643V330.94H179.263V329.554ZM172.305 320.398H174.055V321.728C174.055 322.503 173.962 323.254 173.775 323.982C173.588 324.71 173.28 325.359 172.851 325.928C172.422 326.497 171.838 326.936 171.101 327.244L169.925 325.522C170.532 325.242 171.008 324.901 171.353 324.5C171.698 324.089 171.941 323.646 172.081 323.17C172.23 322.694 172.305 322.213 172.305 321.728V320.398ZM172.767 320.398H174.489V321.728C174.489 322.204 174.55 322.671 174.671 323.128C174.802 323.576 175.021 323.987 175.329 324.36C175.637 324.733 176.057 325.051 176.589 325.312L175.399 327.02C174.736 326.712 174.209 326.292 173.817 325.76C173.434 325.219 173.164 324.603 173.005 323.912C172.846 323.212 172.767 322.484 172.767 321.728V320.398ZM183.616 320.916H189.132V322.694H183.616V320.916ZM185.114 324.682H187.326V329.148H185.114V324.682ZM188.236 320.916H190.462V322.19C190.462 322.881 190.448 323.623 190.42 324.416C190.392 325.2 190.289 326.105 190.112 327.132L187.914 326.936C188.072 325.965 188.166 325.102 188.194 324.346C188.222 323.59 188.236 322.871 188.236 322.19V320.916ZM191.302 319.684H193.556V332.816H191.302V319.684ZM192.884 324.85H195.138V326.698H192.884V324.85ZM183.168 330.296L182.986 328.49C183.742 328.49 184.563 328.485 185.45 328.476C186.346 328.457 187.251 328.425 188.166 328.378C189.08 328.322 189.962 328.243 190.812 328.14L190.924 329.778C190.046 329.927 189.155 330.039 188.25 330.114C187.344 330.189 186.458 330.24 185.59 330.268C184.731 330.287 183.924 330.296 183.168 330.296ZM199.12 320.3H200.716V321.574H201.038V320.3H202.634V326.054H199.12V320.3ZM200.716 323.268V324.318H201.038V323.268H200.716ZM202.97 320.3H204.552V321.574H204.888V320.3H206.484V326.054H202.97V320.3ZM204.552 323.268V324.318H204.888V323.268H204.552ZM209.2 319.698H211.09V326.306H209.2V319.698ZM208.15 322.176H210.012V323.94H208.15V322.176ZM206.876 319.922H208.738V326.278H206.876V319.922ZM201.262 326.754H211.09V330.534H203.502V331.878H201.276V328.938H208.864V328.462H201.262V326.754ZM201.276 331.038H211.412V332.774H201.276V331.038ZM217.221 321.98H219.083V323.8H217.221V321.98ZM221.169 319.698H223.311V327.342H221.169V319.698ZM218.523 319.908H220.623V327.244H218.523V319.908ZM214.253 327.804H223.311V332.704H214.253V327.804ZM221.099 329.554H216.479V330.94H221.099V329.554ZM214.141 320.398H215.891V321.728C215.891 322.503 215.797 323.254 215.611 323.982C215.424 324.71 215.116 325.359 214.687 325.928C214.257 326.497 213.674 326.936 212.937 327.244L211.761 325.522C212.367 325.242 212.843 324.901 213.189 324.5C213.534 324.089 213.777 323.646 213.917 323.17C214.066 322.694 214.141 322.213 214.141 321.728V320.398ZM214.603 320.398H216.325V321.728C216.325 322.204 216.385 322.671 216.507 323.128C216.637 323.576 216.857 323.987 217.165 324.36C217.473 324.733 217.893 325.051 218.425 325.312L217.235 327.02C216.572 326.712 216.045 326.292 215.653 325.76C215.27 325.219 214.999 324.603 214.841 323.912C214.682 323.212 214.603 322.484 214.603 321.728V320.398Z" fill="#0A0A0A"/>
<mask id="path-40-inside-13_264_2597" fill="white">
<path d="M115 350.5C115 346.082 118.582 342.5 123 342.5H225C229.418 342.5 233 346.082 233 350.5V368.5C233 372.918 229.418 376.5 225 376.5H123C118.582 376.5 115 372.918 115 368.5V350.5Z"/>
</mask>
<path d="M115 350.5C115 346.082 118.582 342.5 123 342.5H225C229.418 342.5 233 346.082 233 350.5V368.5C233 372.918 229.418 376.5 225 376.5H123C118.582 376.5 115 372.918 115 368.5V350.5Z" fill="#E67E22"/>
<path d="M123 342.5V344.5H225V342.5V340.5H123V342.5ZM233 350.5H231V368.5H233H235V350.5H233ZM225 376.5V374.5H123V376.5V378.5H225V376.5ZM115 368.5H117V350.5H115H113V368.5H115ZM123 376.5V374.5C119.686 374.5 117 371.814 117 368.5H115H113C113 374.023 117.477 378.5 123 378.5V376.5ZM233 368.5H231C231 371.814 228.314 374.5 225 374.5V376.5V378.5C230.523 378.5 235 374.023 235 368.5H233ZM225 342.5V344.5C228.314 344.5 231 347.186 231 350.5H233H235C235 344.977 230.523 340.5 225 340.5V342.5ZM123 342.5V340.5C117.477 340.5 113 344.977 113 350.5H115H117C117 347.186 119.686 344.5 123 344.5V342.5Z" fill="#8B4A10" mask="url(#path-40-inside-13_264_2597)"/>
<path d="M131.901 357.384H134.145V358.644H131.901V357.384ZM131.841 360.156H134.109V361.428H131.841V360.156ZM135.657 354.444H137.181V365.556H135.657V354.444ZM133.377 354.684H134.865V365.064H133.377V354.684ZM130.869 355.752H132.393C132.393 356.808 132.269 357.792 132.021 358.704C131.781 359.608 131.365 360.44 130.773 361.2C130.189 361.96 129.381 362.644 128.349 363.252L127.449 362.136C128.289 361.632 128.957 361.084 129.453 360.492C129.957 359.892 130.317 359.232 130.533 358.512C130.757 357.784 130.869 356.972 130.869 356.076V355.752ZM128.085 355.752H131.397V357.036H128.085V355.752ZM141.14 355.128H142.46V356.328C142.46 357.064 142.344 357.756 142.112 358.404C141.888 359.044 141.544 359.604 141.08 360.084C140.624 360.564 140.04 360.924 139.328 361.164L138.476 359.928C139.108 359.72 139.62 359.432 140.012 359.064C140.404 358.688 140.688 358.264 140.864 357.792C141.048 357.312 141.14 356.824 141.14 356.328V355.128ZM141.464 355.128H142.76V356.34C142.76 356.692 142.808 357.04 142.904 357.384C143 357.72 143.152 358.04 143.36 358.344C143.568 358.64 143.832 358.908 144.152 359.148C144.472 359.38 144.856 359.568 145.304 359.712L144.488 360.96C143.792 360.728 143.22 360.384 142.772 359.928C142.332 359.464 142.004 358.924 141.788 358.308C141.572 357.692 141.464 357.036 141.464 356.34V355.128ZM145.796 354.456H147.392V362.58H145.796V354.456ZM146.948 357.672H148.868V358.98H146.948V357.672ZM140.24 364.092H147.788V365.376H140.24V364.092ZM140.24 361.8H141.848V364.776H140.24V361.8ZM152.87 355.548H157.67V356.82H152.87V355.548ZM154.31 358.728H155.87V362.508H154.31V358.728ZM157.022 355.548H158.606V356.46C158.606 356.996 158.59 357.608 158.558 358.296C158.534 358.984 158.446 359.792 158.294 360.72L156.734 360.588C156.878 359.7 156.962 358.924 156.986 358.26C157.01 357.588 157.022 356.988 157.022 356.46V355.548ZM159.554 354.444H161.138V365.556H159.554V354.444ZM160.682 358.908H162.638V360.228H160.682V358.908ZM152.462 363.324L152.318 362.028C152.966 362.028 153.67 362.024 154.43 362.016C155.198 362 155.974 361.972 156.758 361.932C157.55 361.884 158.314 361.816 159.05 361.728L159.122 362.892C158.37 363.012 157.602 363.104 156.818 363.168C156.042 363.232 155.282 363.276 154.538 363.3C153.794 363.316 153.102 363.324 152.462 363.324ZM169.477 357.132H171.589V358.428H169.477V357.132ZM171.145 354.456H172.753V361.056H171.145V354.456ZM168.985 361.296C169.769 361.296 170.445 361.38 171.013 361.548C171.581 361.716 172.017 361.96 172.321 362.28C172.633 362.6 172.789 362.984 172.789 363.432C172.789 364.12 172.449 364.648 171.769 365.016C171.089 365.392 170.161 365.58 168.985 365.58C167.809 365.58 166.881 365.392 166.201 365.016C165.521 364.648 165.181 364.12 165.181 363.432C165.181 362.984 165.333 362.6 165.637 362.28C165.949 361.96 166.389 361.716 166.957 361.548C167.525 361.38 168.201 361.296 168.985 361.296ZM168.985 362.508C168.505 362.508 168.101 362.544 167.773 362.616C167.445 362.68 167.193 362.78 167.017 362.916C166.849 363.052 166.765 363.224 166.765 363.432C166.765 363.64 166.849 363.816 167.017 363.96C167.193 364.096 167.445 364.2 167.773 364.272C168.101 364.336 168.505 364.368 168.985 364.368C169.465 364.368 169.869 364.336 170.197 364.272C170.525 364.2 170.773 364.096 170.941 363.96C171.109 363.816 171.193 363.64 171.193 363.432C171.193 363.224 171.109 363.052 170.941 362.916C170.773 362.78 170.525 362.68 170.197 362.616C169.869 362.544 169.465 362.508 168.985 362.508ZM166.021 355.56H167.317V356.268C167.317 356.972 167.205 357.644 166.981 358.284C166.757 358.924 166.413 359.488 165.949 359.976C165.493 360.456 164.909 360.816 164.197 361.056L163.393 359.796C163.849 359.644 164.241 359.44 164.569 359.184C164.905 358.928 165.177 358.644 165.385 358.332C165.601 358.012 165.761 357.676 165.865 357.324C165.969 356.972 166.021 356.62 166.021 356.268V355.56ZM166.357 355.56H167.629V356.256C167.629 356.696 167.717 357.128 167.893 357.552C168.069 357.976 168.341 358.36 168.709 358.704C169.085 359.048 169.565 359.32 170.149 359.52L169.369 360.768C168.681 360.536 168.113 360.196 167.665 359.748C167.225 359.292 166.897 358.764 166.681 358.164C166.465 357.556 166.357 356.92 166.357 356.256V355.56ZM163.825 355.128H169.801V356.388H163.825V355.128ZM177.211 362.976H187.279V364.272H177.211V362.976ZM181.435 360.6H183.019V363.288H181.435V360.6ZM178.267 355.152H179.863V356.868H184.591V355.152H186.175V360.936H178.267V355.152ZM179.863 358.116V359.664H184.591V358.116H179.863ZM195.954 354.432H197.538V365.58H195.954V354.432ZM194.214 358.44H196.278V359.724H194.214V358.44ZM188.622 361.704H189.534C190.142 361.704 190.71 361.696 191.238 361.68C191.774 361.664 192.298 361.636 192.81 361.596C193.322 361.548 193.846 361.48 194.382 361.392L194.526 362.688C193.974 362.776 193.434 362.844 192.906 362.892C192.378 362.94 191.838 362.972 191.286 362.988C190.742 363.004 190.158 363.012 189.534 363.012H188.622V361.704ZM188.61 355.38H193.614V359.568H190.206V362.088H188.622V358.308H192.042V356.652H188.61V355.38ZM206.381 354.432H207.989V365.544H206.381V354.432ZM207.581 358.692H209.537V360H207.581V358.692ZM203.465 355.584H205.037C205.037 356.696 204.877 357.748 204.557 358.74C204.245 359.732 203.725 360.644 202.997 361.476C202.277 362.3 201.301 363.02 200.069 363.636L199.169 362.424C200.145 361.92 200.949 361.352 201.581 360.72C202.221 360.088 202.693 359.372 202.997 358.572C203.309 357.764 203.465 356.864 203.465 355.872V355.584ZM199.781 355.584H204.293V356.868H199.781V355.584ZM217.984 354.444H219.58V365.556H217.984V354.444ZM214.708 355.596H216.28C216.28 356.444 216.196 357.256 216.028 358.032C215.868 358.8 215.596 359.524 215.212 360.204C214.836 360.884 214.316 361.516 213.652 362.1C212.996 362.676 212.176 363.204 211.192 363.684L210.352 362.424C211.424 361.904 212.276 361.332 212.908 360.708C213.548 360.076 214.008 359.364 214.288 358.572C214.568 357.772 214.708 356.876 214.708 355.884V355.596ZM210.952 355.596H215.452V356.868H210.952V355.596Z" fill="white"/>
</g>
</g>
</g>
<defs>
<filter id="filter0_d_264_2597" x="16" y="36" width="40" height="43" filterUnits="userSpaceOnUse" color-interpolation-filters="sRGB">
<feFlood flood-opacity="0" result="BackgroundImageFix"/>
<feColorMatrix in="SourceAlpha" type="matrix" values="0 0 0 0 0 0 0 0 0 0 0 0 0 0 0 0 0 0 127 0" result="hardAlpha"/>
<feOffset dy="3"/>
<feComposite in2="hardAlpha" operator="out"/>
<feColorMatrix type="matrix" values="0 0 0 0 0.101961 0 0 0 0 0.227451 0 0 0 0 0.360784 0 0 0 1 0"/>
<feBlend mode="normal" in2="BackgroundImageFix" result="effect1_dropShadow_264_2597"/>
<feBlend mode="normal" in="SourceGraphic" in2="effect1_dropShadow_264_2597" result="shape"/>
</filter>
<filter id="filter1_d_264_2597" x="16" y="713" width="358" height="74" filterUnits="userSpaceOnUse" color-interpolation-filters="sRGB">
<feFlood flood-opacity="0" result="BackgroundImageFix"/>
<feColorMatrix in="SourceAlpha" type="matrix" values="0 0 0 0 0 0 0 0 0 0 0 0 0 0 0 0 0 0 127 0" result="hardAlpha"/>
<feOffset dy="6"/>
<feComposite in2="hardAlpha" operator="out"/>
<feColorMatrix type="matrix" values="0 0 0 0 0.105882 0 0 0 0 0.290196 0 0 0 0 0.105882 0 0 0 1 0"/>
<feBlend mode="normal" in2="BackgroundImageFix" result="effect1_dropShadow_264_2597"/>
<feBlend mode="normal" in="SourceGraphic" in2="effect1_dropShadow_264_2597" result="shape"/>
</filter>
<filter id="filter2_d_264_2597" x="16" y="97" width="358" height="77.5" filterUnits="userSpaceOnUse" color-interpolation-filters="sRGB">
<feFlood flood-opacity="0" result="BackgroundImageFix"/>
<feColorMatrix in="SourceAlpha" type="matrix" values="0 0 0 0 0 0 0 0 0 0 0 0 0 0 0 0 0 0 127 0" result="hardAlpha"/>
<feOffset dy="5"/>
<feComposite in2="hardAlpha" operator="out"/>
<feColorMatrix type="matrix" values="0 0 0 0 0.239216 0 0 0 0 0.156863 0 0 0 0 0 0 0 0 1 0"/>
<feBlend mode="normal" in2="BackgroundImageFix" result="effect1_dropShadow_264_2597"/>
<feBlend mode="normal" in="SourceGraphic" in2="effect1_dropShadow_264_2597" result="shape"/>
</filter>
<filter id="filter3_d_264_2597" x="16" y="189.5" width="362" height="98" filterUnits="userSpaceOnUse" color-interpolation-filters="sRGB">
<feFlood flood-opacity="0" result="BackgroundImageFix"/>
<feColorMatrix in="SourceAlpha" type="matrix" values="0 0 0 0 0 0 0 0 0 0 0 0 0 0 0 0 0 0 127 0" result="hardAlpha"/>
<feOffset dx="4" dy="4"/>
<feComposite in2="hardAlpha" operator="out"/>
<feColorMatrix type="matrix" values="0 0 0 0 0.164706 0 0 0 0 0.352941 0 0 0 0 0.541176 0 0 0 1 0"/>
<feBlend mode="normal" in2="BackgroundImageFix" result="effect1_dropShadow_264_2597"/>
<feBlend mode="normal" in="SourceGraphic" in2="effect1_dropShadow_264_2597" result="shape"/>
</filter>
<filter id="filter4_d_264_2597" x="39" y="206.5" width="62" height="62" filterUnits="userSpaceOnUse" color-interpolation-filters="sRGB">
<feFlood flood-opacity="0" result="BackgroundImageFix"/>
<feColorMatrix in="SourceAlpha" type="matrix" values="0 0 0 0 0 0 0 0 0 0 0 0 0 0 0 0 0 0 127 0" result="hardAlpha"/>
<feOffset dx="2" dy="2"/>
<feComposite in2="hardAlpha" operator="out"/>
<feColorMatrix type="matrix" values="0 0 0 0 0.164706 0 0 0 0 0.352941 0 0 0 0 0.541176 0 0 0 1 0"/>
<feBlend mode="normal" in2="BackgroundImageFix" result="effect1_dropShadow_264_2597"/>
<feBlend mode="normal" in="SourceGraphic" in2="effect1_dropShadow_264_2597" result="shape"/>
</filter>
<filter id="filter5_d_264_2597" x="16" y="299.5" width="362" height="98" filterUnits="userSpaceOnUse" color-interpolation-filters="sRGB">
<feFlood flood-opacity="0" result="BackgroundImageFix"/>
<feColorMatrix in="SourceAlpha" type="matrix" values="0 0 0 0 0 0 0 0 0 0 0 0 0 0 0 0 0 0 127 0" result="hardAlpha"/>
<feOffset dx="4" dy="4"/>
<feComposite in2="hardAlpha" operator="out"/>
<feColorMatrix type="matrix" values="0 0 0 0 0.545098 0 0 0 0 0.290196 0 0 0 0 0.0627451 0 0 0 1 0"/>
<feBlend mode="normal" in2="BackgroundImageFix" result="effect1_dropShadow_264_2597"/>
<feBlend mode="normal" in="SourceGraphic" in2="effect1_dropShadow_264_2597" result="shape"/>
</filter>
<filter id="filter6_d_264_2597" x="39" y="316.5" width="62" height="62" filterUnits="userSpaceOnUse" color-interpolation-filters="sRGB">
<feFlood flood-opacity="0" result="BackgroundImageFix"/>
<feColorMatrix in="SourceAlpha" type="matrix" values="0 0 0 0 0 0 0 0 0 0 0 0 0 0 0 0 0 0 127 0" result="hardAlpha"/>
<feOffset dx="2" dy="2"/>
<feComposite in2="hardAlpha" operator="out"/>
<feColorMatrix type="matrix" values="0 0 0 0 0.545098 0 0 0 0 0.290196 0 0 0 0 0.0627451 0 0 0 1 0"/>
<feBlend mode="normal" in2="BackgroundImageFix" result="effect1_dropShadow_264_2597"/>
<feBlend mode="normal" in="SourceGraphic" in2="effect1_dropShadow_264_2597" result="shape"/>
</filter>
<linearGradient id="paint0_linear_264_2597" x1="195" y1="0" x2="195" y2="801" gradientUnits="userSpaceOnUse">
<stop stop-color="#87CEEB"/>
<stop offset="0.55" stop-color="#A8DFEF"/>
<stop offset="1" stop-color="#B8E8F5"/>
</linearGradient>
<linearGradient id="paint1_linear_264_2597" x1="195" y1="97" x2="195" y2="169.5" gradientUnits="userSpaceOnUse">
<stop stop-color="#1A5C8A"/>
<stop offset="1" stop-color="#0F3A58"/>
</linearGradient>
<clipPath id="clip0_264_2597">
<rect width="390" height="801" fill="white"/>
</clipPath>
<clipPath id="clip1_264_2597">
<rect width="390" height="801" fill="white"/>
</clipPath>
</defs>
</svg>
