<svg width="390" height="801" viewBox="0 0 390 801" fill="none" xmlns="http://www.w3.org/2000/svg">
<g clip-path="url(#clip0_262_1669)">
<rect width="390" height="801" fill="white" fill-opacity="0.01"/>
<rect width="390" height="801" fill="url(#paint0_linear_262_1669)"/>
<rect width="16" height="20" transform="translate(53 94)" fill="white" fill-opacity="0.48"/>
<rect width="16" height="32" transform="translate(69 88)" fill="white" fill-opacity="0.48"/>
<rect width="16" height="40" transform="translate(85 84)" fill="white" fill-opacity="0.48"/>
<rect width="16" height="32" transform="translate(101 88)" fill="white" fill-opacity="0.48"/>
<rect width="16" height="20" transform="translate(117 94)" fill="white" fill-opacity="0.48"/>
<rect width="12" height="15" transform="translate(250 128.5)" fill="white" fill-opacity="0.56"/>
<rect width="12" height="24" transform="translate(262 124)" fill="white" fill-opacity="0.56"/>
<rect width="12" height="30" transform="translate(274 121)" fill="white" fill-opacity="0.56"/>
<rect width="12" height="24" transform="translate(286 124)" fill="white" fill-opacity="0.56"/>
<rect width="12" height="15" transform="translate(298 128.5)" fill="white" fill-opacity="0.56"/>
<rect width="9.6" height="12" transform="translate(314.286 64)" fill="white" fill-opacity="0.72"/>
<rect width="9.6" height="19.2" transform="translate(323.886 60.3999)" fill="white" fill-opacity="0.72"/>
<rect width="9.6" height="24" transform="translate(333.486 58)" fill="white" fill-opacity="0.72"/>
<rect width="9.6" height="19.2" transform="translate(343.086 60.3999)" fill="white" fill-opacity="0.72"/>
<rect width="9.6" height="12" transform="translate(352.686 64)" fill="white" fill-opacity="0.72"/>
<g filter="url(#filter0_d_262_1669)">
<path d="M114.25 125.5H115.75V124H123.25V125.5H124.75V139H121.75V131.5H117.25V139H114.25V125.5ZM117.25 125.5V130H121.75V125.5H117.25ZM127.25 124H133.25V125.5H131.75V137.5H133.25V139H127.25V137.5H128.75V125.5H127.25V124ZM145.75 124H150.25V122.5H153.25V124H157.75V125.5H154.75V127H157.75V131.5H154.75V133H148.75V131.5H145.75V127H148.75V125.5H145.75V124ZM148.75 128.5V130H150.25V131.5H153.25V130H154.75V128.5H153.25V127H150.25V128.5H148.75ZM160.75 122.5H163.75V127H168.25V128.5H163.75V133H160.75V122.5ZM147.25 134.5H163.75V140.5H162.25V142H160.75V136H147.25V134.5ZM170.75 131.5H172.25V130H173.75V128.5H175.25V122.5H178.25V128.5H179.75V130H181.25V131.5H182.75V133H179.75V131.5H178.25V130H175.25V131.5H173.75V133H170.75V131.5ZM184.25 122.5H187.25V127H188.75V122.5H191.75V133H188.75V128.5H187.25V133H184.25V122.5ZM172.25 136H175.25V134.5H188.75V136H191.75V140.5H188.75V142H175.25V140.5H172.25V136ZM175.25 137.5V139H176.75V140.5H187.25V139H188.75V137.5H187.25V136H176.75V137.5H175.25ZM195.75 124H207.75V133H206.25V134.5H203.25V133H204.75V125.5H195.75V124ZM195.75 139H200.25V131.5H203.25V139H210.75V122.5H213.75V131.5H218.25V133H213.75V142H210.75V140.5H195.75V139ZM229.25 122.5H241.25V131.5H239.75V133H230.75V131.5H229.25V122.5ZM232.25 124V131.5H238.25V124H232.25ZM244.25 122.5H247.25V127H251.75V128.5H247.25V133H244.25V122.5ZM230.75 134.5H233.75V140.5H247.25V142H232.25V140.5H230.75V134.5ZM254.25 122.5H257.25V131.5H266.25V133H255.75V131.5H254.25V122.5ZM269.25 122.5H272.25V127H276.75V128.5H272.25V133H269.25V122.5ZM255.75 134.5H272.25V139H258.75V140.5H272.25V142H257.25V140.5H255.75V137.5H269.25V136H255.75V134.5ZM59.75 160H71.75V169H70.25V170.5H67.25V169H68.75V161.5H59.75V160ZM59.75 175H64.25V167.5H67.25V175H74.75V158.5H77.75V167.5H82.25V169H77.75V178H74.75V176.5H59.75V175ZM84.75 163H86.25V161.5H87.75V160H93.75V161.5H95.25V163H96.75V167.5H95.25V169H93.75V170.5H87.75V169H86.25V167.5H84.75V163ZM87.75 163V167.5H89.25V169H92.25V167.5H93.75V163H92.25V161.5H89.25V163H87.75ZM84.75 175H89.25V170.5H92.25V175H101.25V158.5H104.25V178H101.25V176.5H84.75V175ZM118.25 175H119.75V173.5H121.25V172H122.75V160H125.75V172H127.25V173.5H128.75V175H130.25V176.5H127.25V175H125.75V173.5H122.75V175H121.25V176.5H118.25V175ZM134.75 158.5H137.75V178H134.75V158.5ZM143.25 158.5H152.25V167.5H150.75V169H144.75V167.5H149.25V160H143.25V158.5ZM158.25 158.5H161.25V163H165.75V164.5H161.25V169H158.25V158.5ZM144.75 170.5H147.75V176.5H161.25V178H146.25V176.5H144.75V170.5ZM169.75 160H172.75V158.5H184.75V160H187.75V164.5H184.75V166H172.75V164.5H169.75V160ZM172.75 161.5V163H174.25V164.5H183.25V163H184.75V161.5H183.25V160H174.25V161.5H172.75ZM168.25 167.5H189.25V169H168.25V167.5ZM169.75 170.5H187.75V175H172.75V176.5H187.75V178H171.25V176.5H169.75V173.5H184.75V172H169.75V170.5ZM201.75 158.5H213.75V160H209.25V164.5H210.75V166H212.25V167.5H213.75V169H210.75V167.5H209.25V166H206.25V167.5H204.75V169H201.75V167.5H203.25V166H204.75V164.5H206.25V160H201.75V158.5ZM213.75 163H218.25V158.5H221.25V169H218.25V164.5H213.75V163ZM203.25 172H206.25V170.5H218.25V172H221.25V176.5H218.25V178H206.25V176.5H203.25V172ZM206.25 173.5V175H207.75V176.5H216.75V175H218.25V173.5H216.75V172H207.75V173.5H206.25ZM226.75 160H231.25V158.5H234.25V160H238.75V161.5H226.75V160ZM226.75 166H228.25V164.5H229.75V163H235.75V164.5H237.25V166H238.75V173.5H237.25V175H235.75V176.5H229.75V175H228.25V173.5H226.75V166ZM229.75 166V173.5H231.25V175H234.25V173.5H235.75V166H234.25V164.5H231.25V166H229.75ZM240.25 158.5H243.25V167.5H244.75V158.5H247.75V178H244.75V169H243.25V178H240.25V158.5ZM253.25 160H271.25V161.5H263.75V164.5H265.25V166H266.75V167.5H271.25V169H265.25V167.5H263.75V166H260.75V167.5H259.25V169H253.25V167.5H257.75V166H259.25V164.5H260.75V161.5H253.25V160ZM251.75 170.5H272.75V172H263.75V178H260.75V172H251.75V170.5ZM276.75 175H278.25V173.5H279.75V172H281.25V160H284.25V172H285.75V173.5H287.25V175H288.75V176.5H285.75V175H284.25V173.5H281.25V175H279.75V176.5H276.75V175ZM287.25 167.5H290.25V158.5H293.25V178H290.25V169H287.25V167.5ZM294.75 158.5H297.75V178H294.75V158.5ZM303.25 163H304.75V161.5H306.25V160H318.25V161.5H319.75V163H321.25V167.5H319.75V169H318.25V170.5H306.25V169H304.75V167.5H303.25V163ZM306.25 163V167.5H307.75V169H316.75V167.5H318.25V163H316.75V161.5H307.75V163H306.25ZM301.75 175H306.25V170.5H309.25V175H315.25V170.5H318.25V175H322.75V176.5H301.75V175ZM326.75 160H329.75V170.5H326.75V160ZM326.75 172H329.75V175H326.75V172Z" fill="#18335C"/>
</g>
<path d="M92.2188 207.062H98.7188V207.875H96.2812V210.312H97.0938V211.125H97.9062V211.938H98.7188V212.75H97.0938V211.938H96.2812V211.125H94.6562V211.938H93.8438V212.75H92.2188V211.938H93.0312V211.125H93.8438V210.312H94.6562V207.875H92.2188V207.062ZM98.7188 209.5H101.156V207.062H102.781V212.75H101.156V210.312H98.7188V209.5ZM93.0312 214.375H94.6562V213.562H101.156V214.375H102.781V216.812H101.156V217.625H94.6562V216.812H93.0312V214.375ZM94.6562 215.188V216H95.4688V216.812H100.344V216H101.156V215.188H100.344V214.375H95.4688V215.188H94.6562ZM105.219 207.875H107.656V207.062H109.281V207.875H111.719V208.688H105.219V207.875ZM105.219 211.125H106.031V210.312H106.844V209.5H110.094V210.312H110.906V211.125H111.719V215.188H110.906V216H110.094V216.812H106.844V216H106.031V215.188H105.219V211.125ZM106.844 211.125V215.188H107.656V216H109.281V215.188H110.094V211.125H109.281V210.312H107.656V211.125H106.844ZM112.531 207.062H114.156V211.938H114.969V207.062H116.594V217.625H114.969V212.75H114.156V217.625H112.531V207.062ZM118.219 207.062H124.719V207.875H122.281V210.312H123.094V211.125H123.906V211.938H124.719V212.75H123.094V211.938H122.281V211.125H120.656V211.938H119.844V212.75H118.219V211.938H119.031V211.125H119.844V210.312H120.656V207.875H118.219V207.062ZM127.156 207.062H128.781V212.75H127.156V207.062ZM119.031 213.562H120.656V216.812H128.781V217.625H119.844V216.812H119.031V213.562ZM135.281 216H136.094V215.188H136.906V214.375H137.719V207.875H139.344V214.375H140.156V215.188H140.969V216H141.781V216.812H140.156V216H139.344V215.188H137.719V216H136.906V216.812H135.281V216ZM144.219 207.062H145.844V217.625H144.219V207.062ZM148.281 207.062H153.156V211.938H152.344V212.75H149.094V211.938H151.531V207.875H148.281V207.062ZM156.406 207.062H158.031V209.5H160.469V210.312H158.031V212.75H156.406V207.062ZM149.094 213.562H150.719V216.812H158.031V217.625H149.906V216.812H149.094V213.562ZM161.281 209.5H162.094V208.688H162.906V207.875H166.156V208.688H166.969V209.5H167.781V215.188H166.969V216H166.156V216.812H162.906V216H162.094V215.188H161.281V209.5ZM162.906 209.5V215.188H163.719V216H165.344V215.188H166.156V209.5H165.344V208.688H163.719V209.5H162.906ZM166.969 211.938H168.594V207.062H170.219V217.625H168.594V212.75H166.969V211.938ZM171.031 207.062H172.656V217.625H171.031V207.062ZM178.344 208.688H179.156V207.875H179.969V207.062H183.219V207.875H184.031V208.688H184.844V211.125H184.031V211.938H183.219V212.75H179.969V211.938H179.156V211.125H178.344V208.688ZM179.969 208.688V211.125H180.781V211.938H182.406V211.125H183.219V208.688H182.406V207.875H180.781V208.688H179.969ZM186.469 207.062H188.094V209.5H190.531V210.312H188.094V212.75H186.469V207.062ZM179.156 213.562H188.094V216H180.781V216.812H188.094V217.625H179.969V216.812H179.156V215.188H186.469V214.375H179.156V213.562ZM191.344 207.062H197.844V210.312H192.969V211.938H197.844V212.75H192.156V211.938H191.344V209.5H196.219V207.875H191.344V207.062ZM200.281 207.062H201.906V212.75H200.281V207.062ZM192.156 213.562H201.906V216.812H201.094V217.625H192.969V216.812H192.156V213.562ZM193.781 214.375V216.812H200.281V214.375H193.781ZM205.156 207.875H206.781V207.062H213.281V207.875H214.906V210.312H213.281V211.125H206.781V210.312H205.156V207.875ZM206.781 208.688V209.5H207.594V210.312H212.469V209.5H213.281V208.688H212.469V207.875H207.594V208.688H206.781ZM204.344 211.938H215.719V212.75H204.344V211.938ZM205.156 213.562H214.906V216H206.781V216.812H214.906V217.625H205.969V216.812H205.156V215.188H213.281V214.375H205.156V213.562ZM222.219 207.875H223.844V210.312H230.344V207.875H231.969V212.75H231.156V213.562H223.031V212.75H222.219V207.875ZM223.844 211.125V212.75H230.344V211.125H223.844ZM221.406 216H226.281V213.562H227.906V216H232.781V216.812H221.406V216ZM234.406 207.875H236.031V216H239.281V215.188H240.906V216H240.094V216.812H235.219V216H234.406V207.875ZM241.719 207.062H243.344V211.938H244.156V207.062H245.781V217.625H244.156V212.75H243.344V217.625H241.719V207.062ZM248.219 207.875H257.969V208.688H249.844V212.75H257.969V213.562H249.031V212.75H248.219V207.875ZM247.406 216H258.781V216.812H247.406V216ZM260.406 207.062H266.906V210.312H262.031V211.938H266.906V212.75H261.219V211.938H260.406V209.5H265.281V207.875H260.406V207.062ZM269.344 207.062H270.969V212.75H269.344V207.062ZM261.219 213.562H270.969V216H262.844V216.812H270.969V217.625H262.031V216.812H261.219V215.188H269.344V214.375H261.219V213.562ZM273.406 207.875H278.281V215.188H277.469V216H276.656V216.812H274.219V216H275.844V215.188H276.656V208.688H273.406V207.875ZM279.094 211.938H280.719V207.062H282.344V217.625H280.719V212.75H279.094V211.938ZM283.156 207.062H284.781V217.625H283.156V207.062ZM287.219 209.5H288.031V208.688H288.844V207.875H295.344V208.688H296.156V209.5H296.969V211.938H296.156V212.75H295.344V213.562H288.844V212.75H288.031V211.938H287.219V209.5ZM288.844 209.5V211.938H289.656V212.75H294.531V211.938H295.344V209.5H294.531V208.688H289.656V209.5H288.844ZM286.406 216H288.844V213.562H290.469V216H293.719V213.562H295.344V216H297.781V216.812H286.406V216Z" fill="#1A3A5C"/>
<g filter="url(#filter1_d_262_1669)">
<mask id="path-3-inside-1_262_1669" fill="white">
<path d="M16 725C16 718.373 21.3726 713 28 713H362C368.627 713 374 718.373 374 725V769C374 775.627 368.627 781 362 781H28C21.3726 781 16 775.627 16 769V725Z"/>
</mask>
<path d="M16 725C16 718.373 21.3726 713 28 713H362C368.627 713 374 718.373 374 725V769C374 775.627 368.627 781 362 781H28C21.3726 781 16 775.627 16 769V725Z" fill="#49CA34" shape-rendering="crispEdges"/>
<path d="M28 713V716H362V713V710H28V713ZM374 725H371V769H374H377V725H374ZM362 781V778H28V781V784H362V781ZM16 769H19V725H16H13V769H16ZM28 781V778C23.0294 778 19 773.971 19 769H16H13C13 777.284 19.7157 784 28 784V781ZM374 769H371C371 773.971 366.971 778 362 778V781V784C370.284 784 377 777.284 377 769H374ZM362 713V716C366.971 716 371 720.029 371 725H374H377C377 716.716 370.284 710 362 710V713ZM28 713V710C19.7157 710 13 716.716 13 725H16H19C19 720.029 23.0294 716 28 716V713Z" fill="#1B4A1B" mask="url(#path-3-inside-1_262_1669)"/>
<path d="M153.725 745.75H154.975V744.5H156.225V743.25H157.475V738.25H159.975V743.25H161.225V744.5H162.475V745.75H163.725V747H161.225V745.75H159.975V744.5H157.475V745.75H156.225V747H153.725V745.75ZM163.725 742H167.475V738.25H169.975V747H167.475V743.25H163.725V742ZM154.975 748.25H169.975V752H157.475V753.25H169.975V754.5H156.225V753.25H154.975V750.75H167.475V749.5H154.975V748.25ZM173.425 738.25H183.425V739.5H179.675V743.25H180.925V744.5H182.175V745.75H183.425V747H180.925V745.75H179.675V744.5H177.175V745.75H175.925V747H173.425V745.75H174.675V744.5H175.925V743.25H177.175V739.5H173.425V738.25ZM183.425 742H187.175V738.25H189.675V747H187.175V743.25H183.425V742ZM174.675 749.5H177.175V748.25H187.175V749.5H189.675V753.25H187.175V754.5H177.175V753.25H174.675V749.5ZM177.175 750.75V752H178.425V753.25H185.925V752H187.175V750.75H185.925V749.5H178.425V750.75H177.175ZM199.075 739.5H201.575V738.25H206.575V739.5H209.075V743.25H206.575V744.5H201.575V743.25H199.075V739.5ZM201.575 740.75V742H202.825V743.25H205.325V742H206.575V740.75H205.325V739.5H202.825V740.75H201.575ZM199.075 745.75H202.825V743.25H205.325V745.75H211.575V738.25H214.075V742H217.825V743.25H214.075V748.25H211.575V747H199.075V745.75ZM200.325 748.25H202.825V753.25H214.075V754.5H201.575V753.25H200.325V748.25ZM220.025 739.5H235.025V744.5H222.525V747H235.025V748.25H221.275V747H220.025V743.25H232.525V740.75H220.025V739.5ZM218.775 752H222.525V748.25H225.025V752H230.025V748.25H232.525V752H236.275V753.25H218.775V752Z" fill="white"/>
</g>
<g filter="url(#filter2_d_262_1669)">
<path d="M16 255C16 243.954 24.9543 235 36 235H354C365.046 235 374 243.954 374 255V547C374 558.046 365.046 567 354 567H36C24.9543 567 16 558.046 16 547V255Z" fill="white" shape-rendering="crispEdges"/>
<path d="M36 236.5H354C364.217 236.5 372.5 244.783 372.5 255V547C372.5 557.217 364.217 565.5 354 565.5H36C25.7827 565.5 17.5 557.217 17.5 547V255C17.5 244.783 25.7827 236.5 36 236.5Z" stroke="#1A3A5C" stroke-width="3" shape-rendering="crispEdges"/>
<path d="M40.9375 263.625H48.4375V269.25H47.5V270.188H45.625V269.25H46.5625V264.562H40.9375V263.625ZM40.9375 273H43.75V268.312H45.625V273H50.3125V262.688H52.1875V268.312H55V269.25H52.1875V274.875H50.3125V273.938H40.9375V273ZM55.9375 265.5H56.875V264.562H57.8125V263.625H61.5625V264.562H62.5V265.5H63.4375V268.312H62.5V269.25H61.5625V270.188H57.8125V269.25H56.875V268.312H55.9375V265.5ZM57.8125 265.5V268.312H58.75V269.25H60.625V268.312H61.5625V265.5H60.625V264.562H58.75V265.5H57.8125ZM55.9375 273H58.75V270.188H60.625V273H66.25V262.688H68.125V274.875H66.25V273.938H55.9375V273ZM75.625 262.688H77.5V265.5H81.25V262.688H83.125V268.312H82.1875V269.25H76.5625V268.312H75.625V262.688ZM77.5 266.438V268.312H81.25V266.438H77.5ZM85.9375 262.688H87.8125V269.25H85.9375V262.688ZM76.5625 270.188H78.4375V273.938H87.8125V274.875H77.5V273.938H76.5625V270.188ZM91.5625 263.625H102.812V264.562H93.4375V269.25H102.812V270.188H92.5V269.25H91.5625V263.625ZM90.625 273H96.25V270.188H98.125V273H103.75V273.938H90.625V273Z" fill="#777777"/>
<mask id="path-9-inside-2_262_1669" fill="white">
<path d="M40 307C40 300.373 45.3726 295 52 295H176C182.627 295 188 300.373 188 307V331C188 337.627 182.627 343 176 343H52C45.3726 343 40 337.627 40 331V307Z"/>
</mask>
<path d="M40 307C40 300.373 45.3726 295 52 295H176C182.627 295 188 300.373 188 307V331C188 337.627 182.627 343 176 343H52C45.3726 343 40 337.627 40 331V307Z" fill="#F5F5F5"/>
<path d="M52 295V298H176V295V292H52V295ZM188 307H185V331H188H191V307H188ZM176 343V340H52V343V346H176V343ZM40 331H43V307H40H37V331H40ZM52 343V340C47.0294 340 43 335.971 43 331H40H37C37 339.284 43.7157 346 52 346V343ZM188 331H185C185 335.971 180.971 340 176 340V343V346C184.284 346 191 339.284 191 331H188ZM176 295V298C180.971 298 185 302.029 185 307H188H191C191 298.716 184.284 292 176 292V295ZM52 295V292C43.7157 292 37 298.716 37 307H40H43C43 302.029 47.0294 298 52 298V295Z" fill="#DDDDDD" mask="url(#path-9-inside-2_262_1669)"/>
<path d="M88.825 311.5H103.825V312.75H97.575V315.25H98.825V316.5H100.075V317.75H103.825V319H98.825V317.75H97.575V316.5H95.075V317.75H93.825V319H88.825V317.75H92.575V316.5H93.825V315.25H95.075V312.75H88.825V311.5ZM87.575 320.25H105.075V321.5H97.575V326.5H95.075V321.5H87.575V320.25ZM111.975 311.5H119.475V312.75H120.725V316.5H119.475V317.75H114.475V322.75H120.725V324H111.975V317.75H113.225V316.5H118.225V312.75H111.975V311.5ZM122.925 311.5H126.675V310.25H129.175V311.5H132.925V312.75H130.425V314H131.675V315.25H132.925V317.75H131.675V319H130.425V320.25H125.425V319H124.175V317.75H122.925V315.25H124.175V314H125.425V312.75H122.925V311.5ZM125.425 315.25V317.75H126.675V319H129.175V317.75H130.425V315.25H129.175V314H126.675V315.25H125.425ZM122.925 324H126.675V320.25H129.175V324H136.675V310.25H139.175V326.5H136.675V325.25H122.925V324Z" fill="#777777"/>
<mask id="path-12-inside-3_262_1669" fill="white">
<path d="M202 307C202 300.373 207.373 295 214 295H338C344.627 295 350 300.373 350 307V331C350 337.627 344.627 343 338 343H214C207.373 343 202 337.627 202 331V307Z"/>
</mask>
<path d="M202 307C202 300.373 207.373 295 214 295H338C344.627 295 350 300.373 350 307V331C350 337.627 344.627 343 338 343H214C207.373 343 202 337.627 202 331V307Z" fill="#FF9438"/>
<path d="M214 295V298H338V295V292H214V295ZM350 307H347V331H350H353V307H350ZM338 343V340H214V343V346H338V343ZM202 331H205V307H202H199V331H202ZM214 343V340C209.029 340 205 335.971 205 331H202H199C199 339.284 205.716 346 214 346V343ZM350 331H347C347 335.971 342.971 340 338 340V343V346C346.284 346 353 339.284 353 331H350ZM338 295V298C342.971 298 347 302.029 347 307H350H353C353 298.716 346.284 292 338 292V295ZM214 295V292C205.716 292 199 298.716 199 307H202H205C205 302.029 209.029 298 214 298V295Z" fill="#CC5500" mask="url(#path-12-inside-3_262_1669)"/>
<path d="M250.825 311.5H265.825V312.75H259.575V315.25H260.825V316.5H262.075V317.75H265.825V319H260.825V317.75H259.575V316.5H257.075V317.75H255.825V319H250.825V317.75H254.575V316.5H255.825V315.25H257.075V312.75H250.825V311.5ZM249.575 320.25H267.075V321.5H259.575V326.5H257.075V321.5H249.575V320.25ZM273.975 311.5H281.475V312.75H282.725V316.5H281.475V317.75H282.725V322.75H281.475V324H273.975V322.75H280.225V317.75H275.225V316.5H280.225V312.75H273.975V311.5ZM284.925 311.5H288.675V310.25H291.175V311.5H294.925V312.75H292.425V314H293.675V315.25H294.925V317.75H293.675V319H292.425V320.25H287.425V319H286.175V317.75H284.925V315.25H286.175V314H287.425V312.75H284.925V311.5ZM287.425 315.25V317.75H288.675V319H291.175V317.75H292.425V315.25H291.175V314H288.675V315.25H287.425ZM284.925 324H288.675V320.25H291.175V324H298.675V310.25H301.175V326.5H298.675V325.25H284.925V324Z" fill="white"/>
<path d="M41.875 365.5H42.8125V364.562H43.75V363.625H51.25V364.562H52.1875V365.5H53.125V368.312H52.1875V369.25H51.25V370.188H43.75V369.25H42.8125V368.312H41.875V365.5ZM43.75 365.5V368.312H44.6875V369.25H50.3125V368.312H51.25V365.5H50.3125V364.562H44.6875V365.5H43.75ZM40.9375 373H43.75V370.188H45.625V373H49.375V370.188H51.25V373H54.0625V373.938H40.9375V373ZM55.9375 364.562H56.875V363.625H57.8125V362.688H61.5625V363.625H62.5V364.562H63.4375V367.375H62.5V368.312H61.5625V369.25H57.8125V368.312H56.875V367.375H55.9375V364.562ZM57.8125 364.562V367.375H58.75V368.312H60.625V367.375H61.5625V364.562H60.625V363.625H58.75V364.562H57.8125ZM66.25 362.688H68.125V369.25H66.25V362.688ZM56.875 370.188H68.125V373H58.75V373.938H68.125V374.875H57.8125V373.938H56.875V372.062H66.25V371.125H56.875V370.188ZM75.625 368.312H76.5625V367.375H77.5V366.438H78.4375V362.688H80.3125V366.438H81.25V367.375H82.1875V368.312H83.125V369.25H81.25V368.312H80.3125V367.375H78.4375V368.312H77.5V369.25H75.625V368.312ZM83.125 365.5H85.9375V362.688H87.8125V369.25H85.9375V366.438H83.125V365.5ZM76.5625 370.188H78.4375V373.938H87.8125V374.875H77.5V373.938H76.5625V370.188ZM90.625 362.688H98.125V363.625H92.5V365.5H98.125V366.438H92.5V368.312H98.125V369.25H91.5625V368.312H90.625V362.688ZM99.0625 362.688H100.938V365.5H101.875V362.688H103.75V369.25H101.875V366.438H100.938V369.25H99.0625V362.688ZM91.5625 370.188H103.75V373.938H102.812V374.875H101.875V371.125H91.5625V370.188Z" fill="#777777"/>
<mask id="path-16-inside-4_262_1669" fill="white">
<path d="M41.5 407C41.5 400.373 46.8726 395 53.5 395H69.5C76.1274 395 81.5 400.373 81.5 407V431C81.5 437.627 76.1274 443 69.5 443H53.5C46.8726 443 41.5 437.627 41.5 431V407Z"/>
</mask>
<path d="M41.5 407C41.5 400.373 46.8726 395 53.5 395H69.5C76.1274 395 81.5 400.373 81.5 407V431C81.5 437.627 76.1274 443 69.5 443H53.5C46.8726 443 41.5 437.627 41.5 431V407Z" fill="#FF9438"/>
<path d="M53.5 395V398H69.5V395V392H53.5V395ZM81.5 407H78.5V431H81.5H84.5V407H81.5ZM69.5 443V440H53.5V443V446H69.5V443ZM41.5 431H44.5V407H41.5H38.5V431H41.5ZM53.5 443V440C48.5294 440 44.5 435.971 44.5 431H41.5H38.5C38.5 439.284 45.2157 446 53.5 446V443ZM81.5 431H78.5C78.5 435.971 74.4706 440 69.5 440V443V446C77.7843 446 84.5 439.284 84.5 431H81.5ZM69.5 395V398C74.4706 398 78.5 402.029 78.5 407H81.5H84.5C84.5 398.716 77.7843 392 69.5 392V395ZM53.5 395V392C45.2157 392 38.5 398.716 38.5 407H41.5H44.5C44.5 402.029 48.5294 398 53.5 398V395Z" fill="#CC5500" mask="url(#path-16-inside-4_262_1669)"/>
<path d="M52.75 411.5H55.25V410.25H60.25V411.5H62.75V415.25H60.25V416.5H55.25V415.25H52.75V411.5ZM55.25 412.75V414H56.5V415.25H59V414H60.25V412.75H59V411.5H56.5V412.75H55.25ZM52.75 416.5H66.5V410.25H69V420.25H66.5V419H62.75V417.75H59V420.25H56.5V417.75H52.75V416.5ZM54 420.25H69V424H56.5V425.25H69V426.5H55.25V425.25H54V422.75H66.5V421.5H54V420.25Z" fill="white"/>
<mask id="path-19-inside-5_262_1669" fill="white">
<path d="M85.5 407C85.5 400.373 90.8726 395 97.5 395H114.5C121.127 395 126.5 400.373 126.5 407V431C126.5 437.627 121.127 443 114.5 443H97.5C90.8726 443 85.5 437.627 85.5 431V407Z"/>
</mask>
<path d="M85.5 407C85.5 400.373 90.8726 395 97.5 395H114.5C121.127 395 126.5 400.373 126.5 407V431C126.5 437.627 121.127 443 114.5 443H97.5C90.8726 443 85.5 437.627 85.5 431V407Z" fill="#F5F5F5"/>
<path d="M97.5 395V398H114.5V395V392H97.5V395ZM126.5 407H123.5V431H126.5H129.5V407H126.5ZM114.5 443V440H97.5V443V446H114.5V443ZM85.5 431H88.5V407H85.5H82.5V431H85.5ZM97.5 443V440C92.5294 440 88.5 435.971 88.5 431H85.5H82.5C82.5 439.284 89.2157 446 97.5 446V443ZM126.5 431H123.5C123.5 435.971 119.471 440 114.5 440V443V446C122.784 446 129.5 439.284 129.5 431H126.5ZM114.5 395V398C119.471 398 123.5 402.029 123.5 407H126.5H129.5C129.5 398.716 122.784 392 114.5 392V395ZM97.5 395V392C89.2157 392 82.5 398.716 82.5 407H85.5H88.5C88.5 402.029 92.5294 398 97.5 398V395Z" fill="#DDDDDD" mask="url(#path-19-inside-5_262_1669)"/>
<path d="M96.75 411.5H100.5V410.25H103V411.5H106.75V412.75H104.25V414H105.5V415.25H106.75V417.75H105.5V419H104.25V420.25H99.25V419H98V417.75H96.75V415.25H98V414H99.25V412.75H96.75V411.5ZM99.25 415.25V417.75H100.5V419H103V417.75H104.25V415.25H103V414H100.5V415.25H99.25ZM96.75 424H100.5V420.25H103V424H109.25V410.25H111.75V417.75H115.5V419H111.75V426.5H109.25V425.25H96.75V424Z" fill="#777777"/>
<mask id="path-22-inside-6_262_1669" fill="white">
<path d="M130.5 407C130.5 400.373 135.873 395 142.5 395H158.5C165.127 395 170.5 400.373 170.5 407V431C170.5 437.627 165.127 443 158.5 443H142.5C135.873 443 130.5 437.627 130.5 431V407Z"/>
</mask>
<path d="M130.5 407C130.5 400.373 135.873 395 142.5 395H158.5C165.127 395 170.5 400.373 170.5 407V431C170.5 437.627 165.127 443 158.5 443H142.5C135.873 443 130.5 437.627 130.5 431V407Z" fill="#FF9438"/>
<path d="M142.5 395V398H158.5V395V392H142.5V395ZM170.5 407H167.5V431H170.5H173.5V407H170.5ZM158.5 443V440H142.5V443V446H158.5V443ZM130.5 431H133.5V407H130.5H127.5V431H130.5ZM142.5 443V440C137.529 440 133.5 435.971 133.5 431H130.5H127.5C127.5 439.284 134.216 446 142.5 446V443ZM170.5 431H167.5C167.5 435.971 163.471 440 158.5 440V443V446C166.784 446 173.5 439.284 173.5 431H170.5ZM158.5 395V398C163.471 398 167.5 402.029 167.5 407H170.5H173.5C173.5 398.716 166.784 392 158.5 392V395ZM142.5 395V392C134.216 392 127.5 398.716 127.5 407H130.5H133.5C133.5 402.029 137.529 398 142.5 398V395Z" fill="#CC5500" mask="url(#path-22-inside-6_262_1669)"/>
<path d="M143 417.75H146.75V416.5H148V415.25H149.25V411.5H151.75V415.25H153V416.5H154.25V417.75H158V419H153V417.75H151.75V416.5H149.25V417.75H148V419H143V417.75ZM141.75 420.25H159.25V421.5H151.75V426.5H149.25V421.5H141.75V420.25Z" fill="white"/>
<mask id="path-25-inside-7_262_1669" fill="white">
<path d="M174.5 407C174.5 400.373 179.873 395 186.5 395H203.5C210.127 395 215.5 400.373 215.5 407V431C215.5 437.627 210.127 443 203.5 443H186.5C179.873 443 174.5 437.627 174.5 431V407Z"/>
</mask>
<path d="M174.5 407C174.5 400.373 179.873 395 186.5 395H203.5C210.127 395 215.5 400.373 215.5 407V431C215.5 437.627 210.127 443 203.5 443H186.5C179.873 443 174.5 437.627 174.5 431V407Z" fill="#F5F5F5"/>
<path d="M186.5 395V398H203.5V395V392H186.5V395ZM215.5 407H212.5V431H215.5H218.5V407H215.5ZM203.5 443V440H186.5V443V446H203.5V443ZM174.5 431H177.5V407H174.5H171.5V431H174.5ZM186.5 443V440C181.529 440 177.5 435.971 177.5 431H174.5H171.5C171.5 439.284 178.216 446 186.5 446V443ZM215.5 431H212.5C212.5 435.971 208.471 440 203.5 440V443V446C211.784 446 218.5 439.284 218.5 431H215.5ZM203.5 395V398C208.471 398 212.5 402.029 212.5 407H215.5H218.5C218.5 398.716 211.784 392 203.5 392V395ZM186.5 395V392C178.216 392 171.5 398.716 171.5 407H174.5H177.5C177.5 402.029 181.529 398 186.5 398V395Z" fill="#DDDDDD" mask="url(#path-25-inside-7_262_1669)"/>
<path d="M187 410.25H202V415.25H200.75V416.5H188.25V415.25H187V410.25ZM189.5 411.5V415.25H199.5V411.5H189.5ZM185.75 417.75H193.25V415.25H195.75V417.75H203.25V419H185.75V417.75ZM187 420.25H202V425.25H200.75V426.5H199.5V421.5H187V420.25Z" fill="#777777"/>
<mask id="path-28-inside-8_262_1669" fill="white">
<path d="M219.5 407C219.5 400.373 224.873 395 231.5 395H247.5C254.127 395 259.5 400.373 259.5 407V431C259.5 437.627 254.127 443 247.5 443H231.5C224.873 443 219.5 437.627 219.5 431V407Z"/>
</mask>
<path d="M219.5 407C219.5 400.373 224.873 395 231.5 395H247.5C254.127 395 259.5 400.373 259.5 407V431C259.5 437.627 254.127 443 247.5 443H231.5C224.873 443 219.5 437.627 219.5 431V407Z" fill="#FF9438"/>
<path d="M231.5 395V398H247.5V395V392H231.5V395ZM259.5 407H256.5V431H259.5H262.5V407H259.5ZM247.5 443V440H231.5V443V446H247.5V443ZM219.5 431H222.5V407H219.5H216.5V431H219.5ZM231.5 443V440C226.529 440 222.5 435.971 222.5 431H219.5H216.5C216.5 439.284 223.216 446 231.5 446V443ZM259.5 431H256.5C256.5 435.971 252.471 440 247.5 440V443V446C255.784 446 262.5 439.284 262.5 431H259.5ZM247.5 395V398C252.471 398 256.5 402.029 256.5 407H259.5H262.5C262.5 398.716 255.784 392 247.5 392V395ZM231.5 395V392C223.216 392 216.5 398.716 216.5 407H219.5H222.5C222.5 402.029 226.529 398 231.5 398V395Z" fill="#CC5500" mask="url(#path-28-inside-8_262_1669)"/>
<path d="M232 410.25H247V416.5H245.75V417.75H243.25V416.5H244.5V411.5H232V410.25ZM230.75 417.75H248.25V419H230.75V417.75ZM232 420.25H247V425.25H245.75V426.5H233.25V425.25H232V420.25ZM234.5 421.5V425.25H244.5V421.5H234.5Z" fill="white"/>
<mask id="path-31-inside-9_262_1669" fill="white">
<path d="M263.5 407C263.5 400.373 268.873 395 275.5 395H292.5C299.127 395 304.5 400.373 304.5 407V431C304.5 437.627 299.127 443 292.5 443H275.5C268.873 443 263.5 437.627 263.5 431V407Z"/>
</mask>
<path d="M263.5 407C263.5 400.373 268.873 395 275.5 395H292.5C299.127 395 304.5 400.373 304.5 407V431C304.5 437.627 299.127 443 292.5 443H275.5C268.873 443 263.5 437.627 263.5 431V407Z" fill="#F5F5F5"/>
<path d="M275.5 395V398H292.5V395V392H275.5V395ZM304.5 407H301.5V431H304.5H307.5V407H304.5ZM292.5 443V440H275.5V443V446H292.5V443ZM263.5 431H266.5V407H263.5H260.5V431H263.5ZM275.5 443V440C270.529 440 266.5 435.971 266.5 431H263.5H260.5C260.5 439.284 267.216 446 275.5 446V443ZM304.5 431H301.5C301.5 435.971 297.471 440 292.5 440V443V446C300.784 446 307.5 439.284 307.5 431H304.5ZM292.5 395V398C297.471 398 301.5 402.029 301.5 407H304.5H307.5C307.5 398.716 300.784 392 292.5 392V395ZM275.5 395V392C267.216 392 260.5 398.716 260.5 407H263.5H266.5C266.5 402.029 270.529 398 275.5 398V395Z" fill="#DDDDDD" mask="url(#path-31-inside-9_262_1669)"/>
<path d="M276 411.5H291V412.75H278.5V415.25H289.75V416.5H278.5V419H291V420.25H277.25V419H276V411.5ZM274.75 424H282.25V420.25H284.75V424H292.25V425.25H274.75V424Z" fill="#777777"/>
<mask id="path-34-inside-10_262_1669" fill="white">
<path d="M308.5 407C308.5 400.373 313.873 395 320.5 395H336.5C343.127 395 348.5 400.373 348.5 407V431C348.5 437.627 343.127 443 336.5 443H320.5C313.873 443 308.5 437.627 308.5 431V407Z"/>
</mask>
<path d="M308.5 407C308.5 400.373 313.873 395 320.5 395H336.5C343.127 395 348.5 400.373 348.5 407V431C348.5 437.627 343.127 443 336.5 443H320.5C313.873 443 308.5 437.627 308.5 431V407Z" fill="#F5F5F5"/>
<path d="M320.5 395V398H336.5V395V392H320.5V395ZM348.5 407H345.5V431H348.5H351.5V407H348.5ZM336.5 443V440H320.5V443V446H336.5V443ZM308.5 431H311.5V407H308.5H305.5V431H308.5ZM320.5 443V440C315.529 440 311.5 435.971 311.5 431H308.5H305.5C305.5 439.284 312.216 446 320.5 446V443ZM348.5 431H345.5C345.5 435.971 341.471 440 336.5 440V443V446C344.784 446 351.5 439.284 351.5 431H348.5ZM336.5 395V398C341.471 398 345.5 402.029 345.5 407H348.5H351.5C351.5 398.716 344.784 392 336.5 392V395ZM320.5 395V392C312.216 392 305.5 398.716 305.5 407H308.5H311.5C311.5 402.029 315.529 398 320.5 398V395Z" fill="#DDDDDD" mask="url(#path-34-inside-10_262_1669)"/>
<path d="M319.75 412.75H321V411.5H322.25V410.25H327.25V411.5H328.5V412.75H329.75V416.5H328.5V417.75H327.25V419H322.25V417.75H321V416.5H319.75V412.75ZM322.25 412.75V416.5H323.5V417.75H326V416.5H327.25V412.75H326V411.5H323.5V412.75H322.25ZM333.5 410.25H336V419H333.5V410.25ZM321 420.25H336V424H323.5V425.25H336V426.5H322.25V425.25H321V422.75H333.5V421.5H321V420.25Z" fill="#777777"/>
<path d="M40.9375 473H41.875V472.062H42.8125V471.125H43.75V463.625H45.625V471.125H46.5625V472.062H47.5V473H48.4375V473.938H46.5625V473H45.625V472.062H43.75V473H42.8125V473.938H40.9375V473ZM51.25 462.688H53.125V474.875H51.25V462.688ZM55.9375 462.688H61.5625V468.312H60.625V469.25H56.875V468.312H59.6875V463.625H55.9375V462.688ZM65.3125 462.688H67.1875V465.5H70V466.438H67.1875V469.25H65.3125V462.688ZM56.875 470.188H58.75V473.938H67.1875V474.875H57.8125V473.938H56.875V470.188ZM75.625 468.312H76.5625V467.375H77.5V466.438H78.4375V462.688H80.3125V466.438H81.25V467.375H82.1875V468.312H83.125V469.25H81.25V468.312H80.3125V467.375H78.4375V468.312H77.5V469.25H75.625V468.312ZM83.125 465.5H85.9375V462.688H87.8125V469.25H85.9375V466.438H83.125V465.5ZM76.5625 470.188H78.4375V473.938H87.8125V474.875H77.5V473.938H76.5625V470.188ZM90.625 462.688H98.125V463.625H92.5V465.5H98.125V466.438H92.5V468.312H98.125V469.25H91.5625V468.312H90.625V462.688ZM99.0625 462.688H100.938V465.5H101.875V462.688H103.75V469.25H101.875V466.438H100.938V469.25H99.0625V462.688ZM91.5625 470.188H103.75V473.938H102.812V474.875H101.875V471.125H91.5625V470.188Z" fill="#777777"/>
<mask id="path-38-inside-11_262_1669" fill="white">
<path d="M40 507C40 500.373 45.3726 495 52 495H176C182.627 495 188 500.373 188 507V531C188 537.627 182.627 543 176 543H52C45.3726 543 40 537.627 40 531V507Z"/>
</mask>
<path d="M40 507C40 500.373 45.3726 495 52 495H176C182.627 495 188 500.373 188 507V531C188 537.627 182.627 543 176 543H52C45.3726 543 40 537.627 40 531V507Z" fill="#F5F5F5"/>
<path d="M52 495V498H176V495V492H52V495ZM188 507H185V531H188H191V507H188ZM176 543V540H52V543V546H176V543ZM40 531H43V507H40H37V531H40ZM52 543V540C47.0294 540 43 535.971 43 531H40H37C37 539.284 43.7157 546 52 546V543ZM188 531H185C185 535.971 180.971 540 176 540V543V546C184.284 546 191 539.284 191 531H188ZM176 495V498C180.971 498 185 502.029 185 507H188H191C191 498.716 184.284 492 176 492V495ZM52 495V492C43.7157 492 37 498.716 37 507H40H43C43 502.029 47.0294 498 52 498V495Z" fill="#DDDDDD" mask="url(#path-38-inside-11_262_1669)"/>
<path d="M78.975 514H80.225V512.75H81.475V511.5H91.475V512.75H92.725V514H93.975V517.75H92.725V519H91.475V520.25H81.475V519H80.225V517.75H78.975V514ZM81.475 514V517.75H82.725V519H90.225V517.75H91.475V514H90.225V512.75H82.725V514H81.475ZM77.725 524H85.225V520.25H87.725V524H95.225V525.25H77.725V524ZM98.675 511.5H104.925V510.25H107.425V511.5H113.675V512.75H111.175V514H113.675V517.75H111.175V519H101.175V517.75H98.675V514H101.175V512.75H98.675V511.5ZM101.175 515.25V516.5H102.425V517.75H109.925V516.5H111.175V515.25H109.925V514H102.425V515.25H101.175ZM97.425 520.25H114.925V521.5H107.425V526.5H104.925V521.5H97.425V520.25ZM121.825 511.5H130.575V512.75H124.325V516.5H129.325V517.75H130.575V522.75H129.325V524H121.825V522.75H128.075V517.75H121.825V511.5ZM132.775 524H134.025V522.75H135.275V521.5H136.525V511.5H139.025V521.5H140.275V522.75H141.525V524H142.775V525.25H140.275V524H139.025V522.75H136.525V524H135.275V525.25H132.775V524ZM146.525 510.25H149.025V526.5H146.525V510.25Z" fill="#777777"/>
<mask id="path-41-inside-12_262_1669" fill="white">
<path d="M202 507C202 500.373 207.373 495 214 495H338C344.627 495 350 500.373 350 507V531C350 537.627 344.627 543 338 543H214C207.373 543 202 537.627 202 531V507Z"/>
</mask>
<path d="M202 507C202 500.373 207.373 495 214 495H338C344.627 495 350 500.373 350 507V531C350 537.627 344.627 543 338 543H214C207.373 543 202 537.627 202 531V507Z" fill="#FF9438"/>
<path d="M214 495V498H338V495V492H214V495ZM350 507H347V531H350H353V507H350ZM338 543V540H214V543V546H338V543ZM202 531H205V507H202H199V531H202ZM214 543V540C209.029 540 205 535.971 205 531H202H199C199 539.284 205.716 546 214 546V543ZM350 531H347C347 535.971 342.971 540 338 540V543V546C346.284 546 353 539.284 353 531H350ZM338 495V498C342.971 498 347 502.029 347 507H350H353C353 498.716 346.284 492 338 492V495ZM214 495V492C205.716 492 199 498.716 199 507H202H205C205 502.029 209.029 498 214 498V495Z" fill="#CC5500" mask="url(#path-41-inside-12_262_1669)"/>
<path d="M240.975 514H242.225V512.75H243.475V511.5H253.475V512.75H254.725V514H255.975V517.75H254.725V519H253.475V520.25H243.475V519H242.225V517.75H240.975V514ZM243.475 514V517.75H244.725V519H252.225V517.75H253.475V514H252.225V512.75H244.725V514H243.475ZM239.725 524H247.225V520.25H249.725V524H257.225V525.25H239.725V524ZM260.675 511.5H266.925V510.25H269.425V511.5H275.675V512.75H273.175V514H275.675V517.75H273.175V519H263.175V517.75H260.675V514H263.175V512.75H260.675V511.5ZM263.175 515.25V516.5H264.425V517.75H271.925V516.5H273.175V515.25H271.925V514H264.425V515.25H263.175ZM259.425 520.25H276.925V521.5H269.425V526.5H266.925V521.5H259.425V520.25ZM283.825 512.75H285.075V511.5H291.325V512.75H286.325V516.5H291.325V517.75H292.575V522.75H291.325V524H285.075V522.75H283.825V512.75ZM286.325 517.75V522.75H290.075V517.75H286.325ZM294.775 524H296.025V522.75H297.275V521.5H298.525V511.5H301.025V521.5H302.275V522.75H303.525V524H304.775V525.25H302.275V524H301.025V522.75H298.525V524H297.275V525.25H294.775V524ZM308.525 510.25H311.025V526.5H308.525V510.25Z" fill="white"/>
</g>
</g>
<defs>
<filter id="filter0_d_262_1669" x="59.75" y="122.5" width="272" height="58.5" filterUnits="userSpaceOnUse" color-interpolation-filters="sRGB">
<feFlood flood-opacity="0" result="BackgroundImageFix"/>
<feColorMatrix in="SourceAlpha" type="matrix" values="0 0 0 0 0 0 0 0 0 0 0 0 0 0 0 0 0 0 127 0" result="hardAlpha"/>
<feOffset dx="1" dy="2"/>
<feGaussianBlur stdDeviation="0.5"/>
<feComposite in2="hardAlpha" operator="out"/>
<feColorMatrix type="matrix" values="0 0 0 0 0 0 0 0 0 0 0 0 0 0 0 0 0 0 0.25 0"/>
<feBlend mode="normal" in2="BackgroundImageFix" result="effect1_dropShadow_262_1669"/>
<feBlend mode="normal" in="SourceGraphic" in2="effect1_dropShadow_262_1669" result="shape"/>
</filter>
<filter id="filter1_d_262_1669" x="16" y="713" width="358" height="74" filterUnits="userSpaceOnUse" color-interpolation-filters="sRGB">
<feFlood flood-opacity="0" result="BackgroundImageFix"/>
<feColorMatrix in="SourceAlpha" type="matrix" values="0 0 0 0 0 0 0 0 0 0 0 0 0 0 0 0 0 0 127 0" result="hardAlpha"/>
<feOffset dy="6"/>
<feComposite in2="hardAlpha" operator="out"/>
<feColorMatrix type="matrix" values="0 0 0 0 0.105882 0 0 0 0 0.290196 0 0 0 0 0.105882 0 0 0 1 0"/>
<feBlend mode="normal" in2="BackgroundImageFix" result="effect1_dropShadow_262_1669"/>
<feBlend mode="normal" in="SourceGraphic" in2="effect1_dropShadow_262_1669" result="shape"/>
</filter>
<filter id="filter2_d_262_1669" x="16" y="235" width="362" height="336" filterUnits="userSpaceOnUse" color-interpolation-filters="sRGB">
<feFlood flood-opacity="0" result="BackgroundImageFix"/>
<feColorMatrix in="SourceAlpha" type="matrix" values="0 0 0 0 0 0 0 0 0 0 0 0 0 0 0 0 0 0 127 0" result="hardAlpha"/>
<feOffset dx="4" dy="4"/>
<feComposite in2="hardAlpha" operator="out"/>
<feColorMatrix type="matrix" values="0 0 0 0 0.101961 0 0 0 0 0.227451 0 0 0 0 0.360784 0 0 0 0.5 0"/>
<feBlend mode="normal" in2="BackgroundImageFix" result="effect1_dropShadow_262_1669"/>
<feBlend mode="normal" in="SourceGraphic" in2="effect1_dropShadow_262_1669" result="shape"/>
</filter>
<linearGradient id="paint0_linear_262_1669" x1="195" y1="0" x2="195" y2="801" gradientUnits="userSpaceOnUse">
<stop stop-color="#87CEEB"/>
<stop offset="0.55" stop-color="#A8DFEF"/>
<stop offset="1" stop-color="#B8E8F5"/>
</linearGradient>
<clipPath id="clip0_262_1669">
<rect width="390" height="801" fill="white"/>
</clipPath>
</defs>
</svg>
